<?xml version="1.0" encoding="UTF-8" standalone="no"?>
<svg
   id="Capa_1"
   viewBox="0 0 831.74043 600"
   version="1.1"
   sodipodi:docname="gevora.svg"
   width="831.74042"
   height="600"
   inkscape:version="1.2.1 (9c6d41e410, 2022-07-14)"
   xmlns:inkscape="http://www.inkscape.org/namespaces/inkscape"
   xmlns:sodipodi="http://sodipodi.sourceforge.net/DTD/sodipodi-0.dtd"
   xmlns="http://www.w3.org/2000/svg"
   xmlns:svg="http://www.w3.org/2000/svg">
  <sodipodi:namedview
     id="namedview47"
     pagecolor="#ffffff"
     bordercolor="#000000"
     borderopacity="0.25"
     inkscape:showpageshadow="2"
     inkscape:pageopacity="0.0"
     inkscape:pagecheckerboard="0"
     inkscape:deskcolor="#d1d1d1"
     showgrid="false"
     inkscape:zoom="0.66501709"
     inkscape:cx="240.59532"
     inkscape:cy="223.30253"
     inkscape:window-width="1920"
     inkscape:window-height="1001"
     inkscape:window-x="2391"
     inkscape:window-y="-9"
     inkscape:window-maximized="1"
     inkscape:current-layer="Capa_1" />
  <defs
     id="defs4">
    <style
       id="style2">.cls-1{fill:#3c3c3b;}.cls-2{fill:#83a42a;}</style>
  </defs>
  <g
     id="g296"
     transform="matrix(2.9408825,0,0,2.9408825,-25.262181,-39.700755)"
     style="stroke-width:0.340034">
    <path
       class="cls-2"
       d="m 183.43,13.52 c -12.86,0.37 -23.62,4.65 -32.39,11.7 -9.9,7.26 -17.28,17.96 -18.19,39.09 -0.83,19.46 -4.76,30.25 -11.44,36.1 -2.79,2.28 -5.99,4.06 -9.43,5.23 -5.36,1.65 -10.53,1.52 -13.86,1.13 -13.6,-2.25 -23.98,-14.03 -23.98,-28.26 0,-15.84 12.84,-28.67 28.68,-28.67 4.35,0 8.45,0.99 12.15,2.73 l 5.79,-9.02 c -5.27,-2.71 -11.24,-4.24 -17.56,-4.24 -21.28,0 -38.53,17.25 -38.53,38.52 0,21.27 17.25,38.53 38.53,38.53 0.22,0 0.44,-0.03 0.66,-0.03 5.88,-0.03 13.31,-1.37 20.4,-6.27 7.81,-5.13 13.66,-12.99 16.13,-22.25 2.49,-7.53 2.84,-14.81 3.39,-21.59 0,-0.15 0,-0.29 0,-0.43 0,-21.46 17.4,-38.87 38.87,-38.87 21.47,0 38.86,17.4 38.86,38.87 0,0.13 0,0.25 0,0.38 0,0.02 0,0.05 0,0.08 0,21.3 -17.27,38.58 -38.57,38.58 -5.21,0 -10.15,-1.07 -14.68,-2.94 -0.52,-0.21 -1.02,-0.42 -1.52,-0.65 -0.16,-0.08 -0.33,-0.14 -0.48,-0.22 -3,-1.39 -5.78,-3.15 -8.3,-5.22 l -9.66,7.6 c 9.24,8.53 21.58,13.76 35.15,13.76 28.62,0 51.82,-23.2 51.82,-51.82 0,-28.62 -23.21,-52.64 -51.82,-51.82"
       id="path6"
       style="stroke-width:0.340034" />
    <polygon
       class="cls-2"
       points="105.03,91.31 116.27,80.28 120.36,84.72 105.03,99.89 105.03,131.85 98.89,131.76 98.89,99.89 84.22,86.76 87.97,81.99 98.94,91.31 98.94,74.49 105.03,74.49 "
       id="polygon8"
       style="stroke-width:0.340034" />
    <polygon
       class="cls-2"
       points="187.53,77.73 198.78,66.7 202.87,71.13 187.53,86.31 187.53,131.85 181.39,131.76 181.39,86.31 166.73,73.18 170.48,68.41 181.45,77.73 181.45,61.62 187.53,61.62 "
       id="polygon10"
       style="stroke-width:0.340034" />
    <path
       class="cls-1"
       d="m 42.66,167.15 h 6.04 v 17.16 c -4.4,3.71 -10.5,5.59 -16.66,5.59 -13.51,0 -23.45,-9.49 -23.45,-22.5 0,-13.01 9.94,-22.5 23.58,-22.5 6.97,0 12.89,2.33 16.91,6.79 l -3.9,3.9 c -3.64,-3.52 -7.79,-5.09 -12.76,-5.09 -10.18,0 -17.54,7.11 -17.54,16.91 0,9.8 7.36,16.91 17.48,16.91 3.71,0 7.17,-0.82 10.31,-2.83 v -14.34 z"
       id="path12"
       style="stroke-width:0.340034" />
    <polygon
       class="cls-1"
       points="68.56,164.38 90.62,164.38 90.62,169.73 68.56,169.73 68.56,183.93 94.21,183.93 94.21,189.4 62.27,189.4 62.27,145.39 93.33,145.39 93.33,150.86 68.56,150.86 "
       id="polygon14"
       style="stroke-width:0.340034" />
    <polygon
       class="cls-1"
       points="143.56,145.39 124.26,189.4 118.04,189.4 98.67,145.39 105.46,145.39 121.3,181.54 137.27,145.39 "
       id="polygon16"
       style="stroke-width:0.340034" />
    <path
       class="cls-1"
       d="m 146.7,167.4 c 0,-12.89 9.93,-22.5 23.45,-22.5 13.52,0 23.33,9.55 23.33,22.5 0,12.95 -9.93,22.5 -23.33,22.5 -13.4,0 -23.45,-9.62 -23.45,-22.5 m 40.48,0 c 0,-9.74 -7.29,-16.91 -17.04,-16.91 -9.75,0 -17.16,7.17 -17.16,16.91 0,9.74 7.3,16.91 17.16,16.91 9.86,0 17.04,-7.17 17.04,-16.91"
       id="path18"
       style="stroke-width:0.340034" />
    <path
       class="cls-1"
       d="m 234.08,189.4 -9.49,-13.52 c -0.89,0.07 -1.82,0.13 -2.77,0.13 h -10.88 v 13.39 h -6.28 v -44.01 h 17.16 c 11.44,0 18.35,5.78 18.35,15.34 0,6.79 -3.52,11.69 -9.68,13.89 l 10.44,14.77 h -6.86 z m -0.19,-28.67 c 0,-6.29 -4.21,-9.87 -12.26,-9.87 h -10.69 v 19.8 h 10.69 c 8.05,0 12.26,-3.64 12.26,-9.93"
       id="path20"
       style="stroke-width:0.340034" />
    <path
       class="cls-1"
       d="m 279.97,178.4 h -23.39 l -4.84,11.01 h -6.48 l 19.93,-44.01 h 6.23 l 19.99,44.01 h -6.6 z m -2.2,-5.03 -9.49,-21.56 -9.5,21.56 z"
       id="path22"
       style="stroke-width:0.340034" />
    <path
       class="cls-1"
       d="m 75.29,217.41 -2.99,-4.19 c -0.39,0.06 -0.79,0.09 -1.21,0.09 h -3.58 v 4.09 H 66.6 v -12.51 h 4.49 c 3.15,0 5.04,1.57 5.04,4.22 0,1.98 -1.07,3.36 -2.93,3.91 l 3.13,4.38 H 75.3 Z m -4.2,-4.9 c 2.68,0 4.11,-1.25 4.11,-3.4 0,-2.15 -1.43,-3.4 -4.11,-3.4 h -3.58 v 6.79 h 3.58 z"
       id="path24"
       style="stroke-width:0.340034" />
    <polygon
       class="cls-1"
       points="83.96,210.65 90.61,210.65 90.61,211.46 83.96,211.46 83.96,216.59 91.67,216.59 91.67,217.41 83.04,217.41 83.04,204.9 91.4,204.9 91.4,205.72 83.96,205.72 "
       id="polygon26"
       style="stroke-width:0.340034" />
    <path
       class="cls-1"
       d="m 97.3,215.8 0.41,-0.68 c 0.86,0.9 2.44,1.57 4.13,1.57 2.5,0 3.61,-1.09 3.61,-2.44 0,-3.76 -7.81,-1.5 -7.81,-6.12 0,-1.77 1.36,-3.32 4.44,-3.32 1.37,0 2.8,0.43 3.77,1.13 l -0.34,0.74 c -1.04,-0.72 -2.3,-1.06 -3.43,-1.06 -2.43,0 -3.52,1.13 -3.52,2.5 0,3.76 7.81,1.54 7.81,6.08 0,1.77 -1.41,3.31 -4.5,3.31 -1.86,0 -3.65,-0.69 -4.56,-1.7"
       id="path28"
       style="stroke-width:0.340034" />
    <rect
       class="cls-1"
       x="113.03"
       y="204.89999"
       width="0.91000003"
       height="12.51"
       id="rect30"
       style="stroke-width:0.340034" />
    <path
       class="cls-1"
       d="m 121.88,204.9 h 4.95 c 3.96,0 6.65,2.6 6.65,6.26 0,3.66 -2.69,6.26 -6.65,6.26 h -4.95 v -12.51 z m 4.88,11.69 c 3.54,0 5.81,-2.25 5.81,-5.43 0,-3.18 -2.27,-5.44 -5.81,-5.44 h -3.97 v 10.87 z"
       id="path32"
       style="stroke-width:0.340034" />
    <polygon
       class="cls-1"
       points="141.13,210.65 147.79,210.65 147.79,211.46 141.13,211.46 141.13,216.59 148.85,216.59 148.85,217.41 140.21,217.41 140.21,204.9 148.57,204.9 148.57,205.72 141.13,205.72 "
       id="polygon34"
       style="stroke-width:0.340034" />
    <polygon
       class="cls-1"
       points="156.51,204.9 165.02,215.76 165.02,204.9 165.93,204.9 165.93,217.41 165.18,217.41 156.65,206.55 156.65,217.41 155.74,217.41 155.74,204.9 "
       id="polygon36"
       style="stroke-width:0.340034" />
    <path
       class="cls-1"
       d="m 172.67,211.16 c 0,-3.65 2.77,-6.35 6.49,-6.35 1.77,0 3.36,0.58 4.45,1.74 l -0.57,0.59 c -1.07,-1.06 -2.38,-1.48 -3.84,-1.48 -3.2,0 -5.62,2.36 -5.62,5.51 0,3.15 2.42,5.51 5.62,5.51 1.46,0 2.77,-0.45 3.84,-1.5 l 0.57,0.59 c -1.09,1.16 -2.68,1.75 -4.45,1.75 -3.72,0 -6.49,-2.7 -6.49,-6.34"
       id="path38"
       style="stroke-width:0.340034" />
    <rect
       class="cls-1"
       x="190.24001"
       y="204.89999"
       width="0.91000003"
       height="12.51"
       id="rect40"
       style="stroke-width:0.340034" />
    <path
       class="cls-1"
       d="m 206.82,213.89 h -7.25 l -1.59,3.52 H 197 l 5.75,-12.51 h 0.91 l 5.76,12.51 h -0.98 l -1.61,-3.52 z m -0.34,-0.77 -3.29,-7.22 -3.27,7.22 z"
       id="path42"
       style="stroke-width:0.340034" />
    <polygon
       class="cls-1"
       points="216.17,204.9 216.17,216.59 223.37,216.59 223.37,217.41 215.26,217.41 215.26,204.9 "
       id="polygon44"
       style="stroke-width:0.340034" />
  </g>
</svg>
