<?xml version="1.0" encoding="UTF-8"?><svg id="Capa_1" xmlns="http://www.w3.org/2000/svg" viewBox="0 0 300 251"><defs><style>.cls-1{fill:#a8c711;}.cls-2{fill:#008060;}.cls-3{fill:#56a533;}</style></defs><path class="cls-3" d="m19.71,238.76h-2.38v-10.79h4.71c1.39,0,2.17.18,2.81.65.66.48,1.04,1.29,1.04,2.26,0,1.31-.58,2.15-1.8,2.61,1.07.34,1.44.91,1.52,2.33l.08,1.54c.05.71.13.95.44,1.41h-2.38c-.29-.23-.37-.39-.4-.94l-.1-1.47c-.1-1.33-.68-1.91-1.92-1.91h-1.62v4.32Zm2.38-6.23c.89,0,1.37-.45,1.37-1.24s-.48-1.25-1.37-1.25h-2.38v2.49h2.38Z"/><path class="cls-3" d="m52.21,230.04h-5.61v2.1h4.9v1.91h-4.9v2.64h5.71v2.07h-8.14v-10.79h8.04v2.07Z"/><path class="cls-3" d="m76.25,231.35v-.18c0-.91-.71-1.42-1.94-1.42-1.15,0-1.84.42-1.84,1.1,0,.45.32.76.99.92l2.18.5c1.2.29,1.86.58,2.38,1.07.55.5.82,1.2.82,2.05,0,2.23-1.71,3.61-4.51,3.61s-4.59-1.39-4.61-3.8h2.43c.05,1.23.74,1.78,2.22,1.78,1.25,0,2.01-.45,2.01-1.21,0-.53-.39-.91-1.16-1.1l-1.96-.49c-1.15-.27-1.86-.58-2.35-1-.55-.45-.86-1.25-.86-2.12,0-2.09,1.6-3.33,4.34-3.33,1.75,0,2.98.52,3.67,1.54.36.53.53,1.12.63,2.09h-2.43Z"/><path class="cls-3" d="m99.19,238.76h-2.43v-10.79h2.43v10.79Z"/><path class="cls-3" d="m117.65,227.97h3.66c2.18,0,3.33.39,4.3,1.49.86.97,1.33,2.33,1.33,3.85s-.52,3.06-1.41,4.03c-.94,1-2.13,1.42-4.14,1.42h-3.74v-10.79Zm4.06,8.72c1.1,0,1.76-.31,2.22-1.05.36-.6.53-1.34.53-2.28s-.16-1.62-.52-2.23c-.42-.74-1.08-1.08-2.07-1.08h-1.8v6.65h1.63Z"/><path class="cls-3" d="m153.06,230.04h-5.61v2.1h4.9v1.91h-4.9v2.64h5.71v2.07h-8.14v-10.79h8.04v2.07Z"/><path class="cls-3" d="m177.46,238.76l-3.06-5.52-1.12-2.1c.03.57.03.97.03,1.29.02.58.02,1.21.02,1.89v4.43h-2.22v-10.79h2.52l2.98,5.37c.42.81.7,1.37,1.1,2.18-.03-.44-.03-.73-.03-1.05l-.02-.81v-5.69h2.22v10.79h-2.43Z"/><path class="cls-3" d="m205.42,231.41c-.24-1.04-1.04-1.63-2.18-1.63-1.78,0-2.8,1.31-2.8,3.58s1.02,3.59,2.73,3.59c1.25,0,1.99-.61,2.28-1.91h2.57c-.29,2.44-2.12,3.96-4.79,3.96-3.19,0-5.22-2.2-5.22-5.65s2.01-5.63,5.21-5.63c2.6,0,4.38,1.39,4.67,3.69h-2.47Z"/><path class="cls-3" d="m228.22,238.76h-2.43v-10.79h2.43v10.79Z"/><path class="cls-3" d="m248.96,236.59l-.68,2.17h-2.64l3.77-10.79h3.03l3.43,10.79h-2.75l-.58-2.17h-3.58Zm1.91-6.21l-1.31,4.22h2.44l-1.13-4.22Z"/><path class="cls-3" d="m275.62,236.69h5.27v2.07h-7.7v-10.79h2.43v8.72Z"/><rect class="cls-2" x="16.46" y="165.49" width="12.03" height="49.17"/><polygon class="cls-2" points="74.44 165.49 62.4 165.49 62.4 214.66 97.71 214.66 97.71 203.9 74.44 203.9 74.44 165.49"/><rect class="cls-2" x="127.9" y="165.49" width="12.03" height="49.17"/><path class="cls-2" d="m211.76,171.11c-1.99-2.34-4.5-4.14-7.46-5.36-2.93-1.2-6.29-1.82-10-1.82s-7.14.61-10.04,1.82c-2.93,1.22-5.44,3-7.48,5.31-2.03,2.3-3.58,5.13-4.61,8.43-1.02,3.25-1.54,6.96-1.54,11.01,0,8.22,2.06,14.63,6.12,19.06,4.09,4.46,9.99,6.72,17.54,6.72s13.42-2.19,17.46-6.5c4.02-4.3,6.06-10.71,6.06-19.07,0-4.1-.52-7.84-1.53-11.11-1.03-3.31-2.55-6.16-4.53-8.49Zm-17.46,34.55c-3.8,0-6.64-1.14-8.68-3.48-2.05-2.35-3.09-6.21-3.09-11.48s1.04-9.32,3.1-11.99c2.01-2.61,4.85-3.89,8.68-3.89s6.63,1.27,8.6,3.88c2.01,2.67,3.03,6.71,3.03,12,0,2.65-.32,4.97-.94,6.87-.61,1.87-1.45,3.42-2.5,4.6-1.04,1.16-2.27,2.04-3.66,2.61-1.42.58-2.94.87-4.53.87Z"/><path class="cls-2" d="m282.93,195.62c-.41-1.34-.99-2.52-1.72-3.51-.73-.99-1.61-1.84-2.6-2.52-.94-.64-1.97-1.22-3.06-1.72-1.8-.82-3.96-1.57-6.44-2.22-2.43-.64-5-1.29-7.69-1.95-2.47-.62-4.22-1.33-5.2-2.12-.84-.68-1.25-1.58-1.25-2.75,0-1.43.52-2.44,1.63-3.19,1.22-.82,3.14-1.23,5.68-1.23,2.7,0,4.74.52,6.04,1.53,1.27.99,1.99,2.5,2.2,4.61l.1.99h11.48l-.05-1.15c-.1-2.4-.62-4.63-1.55-6.64-.94-2.02-2.27-3.79-3.96-5.25-1.68-1.46-3.78-2.6-6.21-3.4-2.41-.79-5.19-1.19-8.26-1.19s-5.63.38-7.88,1.12c-2.28.75-4.22,1.83-5.76,3.19-1.56,1.38-2.74,3.06-3.51,4.98-.76,1.89-1.14,3.99-1.14,6.24,0,3.2.75,5.83,2.23,7.83,1.45,1.96,3.56,3.57,6.26,4.77,1.7.78,3.61,1.43,5.68,1.94,2.01.5,4.5,1.08,7.41,1.74,1.39.31,2.54.66,3.42,1.03.82.35,1.47.74,1.92,1.14.41.38.69.77.84,1.17.16.44.25.95.25,1.52,0,1.77-.63,3.08-1.92,4.03-1.38,1.01-3.43,1.52-6.1,1.52-2.9,0-5.21-.63-6.87-1.87-1.6-1.19-2.41-2.78-2.49-4.85l-.04-1.06h-11.66l.02,1.12c.05,2.8.61,5.28,1.68,7.38,1.06,2.1,2.55,3.88,4.42,5.29,1.85,1.4,4.07,2.45,6.61,3.12,2.49.66,5.27.99,8.27.99,2.81,0,5.44-.31,7.81-.92,2.41-.62,4.54-1.6,6.32-2.9,1.81-1.33,3.23-3.02,4.23-5.03.99-2.01,1.49-4.42,1.49-7.17,0-1.75-.21-3.31-.61-4.64Z"/><path class="cls-3" d="m197.12,56.73c-5.61-4.09-12.41-6.31-19.4-6.31-13.47,0-25.08,8.13-30.18,19.74-3.87-4.95-5.99-11.03-5.99-17.37,0-4.43,1.04-8.78,3.02-12.7.56-1.1.21-2.45-.85-3.09l-.06-.04c-1.17-.71-2.69-.26-3.31.96-2.32,4.59-3.54,9.68-3.54,14.87,0,7.91,2.82,15.49,7.96,21.47v18.27c-9.27-3.18-16.17-10.85-18.31-20.46-.27-1.2-1.38-2-2.6-1.83l-.12.02c-1.34.19-2.22,1.49-1.92,2.81,2.61,11.78,11.32,21.08,22.95,24.45v16.16h4.75v-9.73c0-15.56,12.66-28.21,28.21-28.21,2.51,0,4.99.33,7.38.97,1.18.32,2.41-.36,2.81-1.51.47-1.32-.31-2.74-1.66-3.1-2.77-.74-5.63-1.12-8.53-1.12-11.95,0-22.43,6.39-28.21,15.94v-3.55c0-15.56,12.66-28.21,28.21-28.21,5.98,0,11.79,1.9,16.59,5.39,1.01.74,2.42.6,3.23-.35h0c.91-1.06.7-2.66-.42-3.48Z"/><path class="cls-1" d="m178.99,109.7c-5.26,11.01-23.73,24.91-37.04,27.96,5.04,2.72,10.8,4.26,16.89,4.26,17.33,0,32.02-12.38,34.94-29.44l.47-2.77h-15.27Z"/><path class="cls-2" d="m135.85,133.49c.41.02.81.04,1.22.04,10.62,0,29.96-13.32,36.51-23.83h-50.16l.48,2.77c1.45,8.47,5.81,15.79,11.95,21.01Z"/><path class="cls-1" d="m121.36,45.4c-5.48,0-9.93,4.45-9.93,9.93s4.45,9.93,9.93,9.93,9.93-4.45,9.93-9.93-4.45-9.93-9.93-9.93Zm0,15.11c-2.86,0-5.18-2.32-5.18-5.18s2.32-5.18,5.18-5.18,5.18,2.32,5.18,5.18-2.32,5.18-5.18,5.18Z"/><path class="cls-1" d="m153.17,12c-5.48,0-9.93,4.45-9.93,9.93s4.45,9.93,9.93,9.93,9.93-4.45,9.93-9.93-4.45-9.93-9.93-9.93Zm0,15.11c-2.86,0-5.18-2.32-5.18-5.18s2.32-5.18,5.18-5.18,5.18,2.32,5.18,5.18-2.32,5.18-5.18,5.18Z"/><path class="cls-1" d="m202.23,29.08c-5.48,0-9.93,4.45-9.93,9.93s4.45,9.93,9.93,9.93,9.93-4.45,9.93-9.93-4.45-9.93-9.93-9.93Zm0,15.11c-2.86,0-5.18-2.32-5.18-5.18s2.32-5.18,5.18-5.18,5.18,2.32,5.18,5.18-2.32,5.18-5.18,5.18Z"/><path class="cls-1" d="m153.17,43.66c-2.79,0-5.05,2.26-5.05,5.05s2.26,5.05,5.05,5.05,5.05-2.26,5.05-5.05-2.26-5.05-5.05-5.05Z"/><circle class="cls-1" cx="178.73" cy="40.74" r="5.05"/><path class="cls-1" d="m131.07,37.21c2.79,0,5.05-2.26,5.05-5.05s-2.26-5.05-5.05-5.05-5.05,2.26-5.05,5.05,2.26,5.05,5.05,5.05Z"/><path class="cls-1" d="m115.47,83.38c-2.79,0-5.05,2.26-5.05,5.05s2.26,5.05,5.05,5.05,5.05-2.26,5.05-5.05-2.26-5.05-5.05-5.05Z"/><path class="cls-1" d="m198.67,74.97c-2.79,0-5.05,2.26-5.05,5.05s2.26,5.05,5.05,5.05,5.05-2.26,5.05-5.05-2.26-5.05-5.05-5.05Z"/><circle class="cls-1" cx="166.11" cy="66.2" r="3.31"/><path class="cls-1" d="m167.52,36.91c0-1.83-1.48-3.31-3.31-3.31s-3.31,1.48-3.31,3.31,1.48,3.31,3.31,3.31,3.31-1.48,3.31-3.31Z"/><path class="cls-1" d="m179.53,28.56c1.83,0,3.31-1.48,3.31-3.31s-1.48-3.31-3.31-3.31-3.31,1.48-3.31,3.31,1.48,3.31,3.31,3.31Z"/><path class="cls-1" d="m180.67,59.5c-1.83,0-3.31,1.48-3.31,3.31s1.48,3.31,3.31,3.31,3.31-1.48,3.31-3.31-1.48-3.31-3.31-3.31Z"/><path class="cls-1" d="m205.54,63.58c-1.83,0-3.31,1.48-3.31,3.31s1.48,3.31,3.31,3.31,3.31-1.48,3.31-3.31-1.48-3.31-3.31-3.31Z"/><path class="cls-1" d="m179.53,82.54c-1.83,0-3.31,1.48-3.31,3.31s1.48,3.31,3.31,3.31,3.31-1.48,3.31-3.31-1.48-3.31-3.31-3.31Z"/><path class="cls-1" d="m113.73,71.65c0-1.83-1.48-3.31-3.31-3.31s-3.31,1.48-3.31,3.31,1.48,3.31,3.31,3.31,3.31-1.48,3.31-3.31Z"/><path class="cls-1" d="m135.96,71.65c-1.83,0-3.31,1.48-3.31,3.31s1.48,3.31,3.31,3.31,3.31-1.48,3.31-3.31-1.48-3.31-3.31-3.31Z"/></svg>