<?xml version="1.0" encoding="UTF-8" standalone="no"?>
<!-- Created with Inkscape (http://www.inkscape.org/) -->

<svg
   width="333.87534mm"
   height="158.75mm"
   viewBox="0 0 333.87534 158.75"
   version="1.1"
   id="svg5"
   xml:space="preserve"
   inkscape:version="1.2.1 (9c6d41e410, 2022-07-14)"
   sodipodi:docname="la_amistad.svg"
   xmlns:inkscape="http://www.inkscape.org/namespaces/inkscape"
   xmlns:sodipodi="http://sodipodi.sourceforge.net/DTD/sodipodi-0.dtd"
   xmlns="http://www.w3.org/2000/svg"
   xmlns:svg="http://www.w3.org/2000/svg"><sodipodi:namedview
     id="namedview7"
     pagecolor="#ffffff"
     bordercolor="#000000"
     borderopacity="0.25"
     inkscape:showpageshadow="2"
     inkscape:pageopacity="0.0"
     inkscape:pagecheckerboard="0"
     inkscape:deskcolor="#d1d1d1"
     inkscape:document-units="mm"
     showgrid="false"
     inkscape:zoom="0.77415123"
     inkscape:cx="605.82478"
     inkscape:cy="309.37108"
     inkscape:window-width="1920"
     inkscape:window-height="1001"
     inkscape:window-x="2391"
     inkscape:window-y="-9"
     inkscape:window-maximized="1"
     inkscape:current-layer="layer1" /><defs
     id="defs2"><style
       id="style132">.cls-1{fill:#ef7f11;}.cls-2{fill:#42bbcb;}.cls-3{fill:#0c3148;}.cls-4{fill:#ea5a62;}</style></defs><g
     inkscape:label="Capa 1"
     inkscape:groupmode="layer"
     id="layer1"
     transform="translate(-12.950132,-116.92752)"><g
       id="g221"
       transform="matrix(1.1844591,0,0,1.1844591,2.2189327,101.5265)"
       style="stroke-width:0.223379"><path
         class="cls-1"
         d="M 35.66,146.78 V 134.3 h 5.3 c 1.33,0 2.3,0.11 2.91,0.34 0.6,0.22 1.09,0.62 1.45,1.2 0.36,0.57 0.54,1.23 0.54,1.97 0,0.94 -0.28,1.71 -0.83,2.32 -0.55,0.61 -1.37,0.99 -2.47,1.15 0.54,0.32 0.99,0.67 1.35,1.05 0.36,0.38 0.83,1.06 1.43,2.03 l 1.52,2.44 h -3.01 l -1.82,-2.72 c -0.65,-0.97 -1.09,-1.58 -1.33,-1.83 -0.24,-0.25 -0.49,-0.43 -0.76,-0.52 -0.27,-0.09 -0.69,-0.14 -1.27,-0.14 h -0.51 v 5.21 h -2.52 z m 2.52,-7.2 h 1.86 c 1.21,0 1.96,-0.05 2.27,-0.15 0.3,-0.1 0.54,-0.28 0.71,-0.53 0.17,-0.25 0.26,-0.56 0.26,-0.94 0,-0.42 -0.11,-0.76 -0.34,-1.02 -0.23,-0.26 -0.54,-0.42 -0.95,-0.49 -0.2,-0.03 -0.82,-0.04 -1.84,-0.04 h -1.97 z"
         id="path136"
         style="stroke-width:0.223379" /><path
         class="cls-1"
         d="M 59.53,146.78 V 134.3 h 9.26 v 2.11 h -6.74 v 2.77 h 6.27 v 2.1 h -6.27 v 3.4 h 6.97 v 2.1 z"
         id="path138"
         style="stroke-width:0.223379" /><path
         class="cls-1"
         d="m 81.54,142.72 2.45,-0.24 c 0.15,0.82 0.45,1.43 0.9,1.81 0.45,0.39 1.06,0.58 1.83,0.58 0.81,0 1.42,-0.17 1.83,-0.51 0.41,-0.34 0.62,-0.75 0.62,-1.21 0,-0.3 -0.09,-0.55 -0.26,-0.75 -0.17,-0.21 -0.48,-0.39 -0.91,-0.54 -0.3,-0.1 -0.97,-0.28 -2.02,-0.55 -1.35,-0.33 -2.3,-0.75 -2.84,-1.23 -0.77,-0.69 -1.15,-1.52 -1.15,-2.51 0,-0.64 0.18,-1.23 0.54,-1.78 0.36,-0.55 0.88,-0.97 1.56,-1.26 0.68,-0.29 1.5,-0.43 2.46,-0.43 1.57,0 2.75,0.34 3.54,1.03 0.79,0.69 1.21,1.6 1.25,2.75 l -2.52,0.11 c -0.11,-0.64 -0.34,-1.1 -0.69,-1.38 -0.35,-0.28 -0.89,-0.42 -1.6,-0.42 -0.71,0 -1.31,0.15 -1.72,0.45 -0.27,0.19 -0.4,0.45 -0.4,0.78 0,0.3 0.12,0.55 0.37,0.76 0.32,0.27 1.09,0.55 2.32,0.83 1.23,0.29 2.13,0.59 2.72,0.9 0.59,0.31 1.05,0.73 1.38,1.27 0.33,0.54 0.5,1.2 0.5,1.99 0,0.72 -0.2,1.39 -0.6,2.01 -0.4,0.62 -0.96,1.09 -1.69,1.39 -0.73,0.3 -1.63,0.46 -2.72,0.46 -1.58,0 -2.79,-0.36 -3.64,-1.09 -0.85,-0.73 -1.35,-1.79 -1.52,-3.19 z"
         id="path140"
         style="stroke-width:0.223379" /><path
         class="cls-1"
         d="M 104.97,146.78 V 134.3 h 2.52 v 12.48 z"
         id="path142"
         style="stroke-width:0.223379" /><path
         class="cls-1"
         d="m 121.24,134.3 h 4.61 c 1.04,0 1.83,0.08 2.38,0.24 0.73,0.22 1.36,0.6 1.88,1.15 0.52,0.55 0.92,1.22 1.19,2.02 0.27,0.8 0.41,1.78 0.41,2.95 0,1.03 -0.13,1.91 -0.38,2.66 -0.31,0.91 -0.76,1.64 -1.34,2.21 -0.44,0.43 -1.03,0.76 -1.77,1 -0.56,0.18 -1.3,0.26 -2.23,0.26 h -4.74 v -12.48 z m 2.52,2.11 v 8.27 h 1.88 c 0.7,0 1.21,-0.04 1.52,-0.12 0.41,-0.1 0.75,-0.28 1.02,-0.52 0.27,-0.24 0.49,-0.65 0.66,-1.2 0.17,-0.55 0.26,-1.32 0.26,-2.29 0,-0.97 -0.08,-1.71 -0.26,-2.22 -0.17,-0.52 -0.41,-0.92 -0.72,-1.21 -0.31,-0.29 -0.7,-0.49 -1.17,-0.59 -0.35,-0.08 -1.04,-0.12 -2.07,-0.12 h -1.13 z"
         id="path144"
         style="stroke-width:0.223379" /><path
         class="cls-1"
         d="M 145.08,146.78 V 134.3 h 9.26 v 2.11 h -6.74 v 2.77 h 6.27 v 2.1 h -6.27 v 3.4 h 6.97 v 2.1 z"
         id="path146"
         style="stroke-width:0.223379" /><path
         class="cls-1"
         d="M 167.95,146.78 V 134.3 h 2.45 l 5.11,8.34 v -8.34 h 2.34 v 12.48 h -2.53 l -5.03,-8.14 v 8.14 z"
         id="path148"
         style="stroke-width:0.223379" /><path
         class="cls-1"
         d="m 199.67,142.19 2.44,0.77 c -0.37,1.36 -1,2.37 -1.87,3.04 -0.87,0.66 -1.98,0.99 -3.32,0.99 -1.66,0 -3.02,-0.57 -4.09,-1.7 -1.07,-1.13 -1.6,-2.68 -1.6,-4.64 0,-2.08 0.54,-3.69 1.61,-4.84 1.07,-1.15 2.48,-1.72 4.23,-1.72 1.53,0 2.77,0.45 3.72,1.35 0.57,0.53 0.99,1.3 1.28,2.3 l -2.5,0.6 c -0.15,-0.65 -0.46,-1.16 -0.92,-1.53 -0.47,-0.37 -1.04,-0.56 -1.71,-0.56 -0.93,0 -1.68,0.33 -2.25,1 -0.58,0.66 -0.86,1.74 -0.86,3.23 0,1.58 0.28,2.7 0.85,3.37 0.57,0.67 1.31,1 2.21,1 0.67,0 1.25,-0.21 1.73,-0.64 0.48,-0.43 0.83,-1.1 1.04,-2.01 z"
         id="path150"
         style="stroke-width:0.223379" /><path
         class="cls-1"
         d="M 215.31,146.78 V 134.3 h 2.52 v 12.48 z"
         id="path152"
         style="stroke-width:0.223379" /><path
         class="cls-1"
         d="m 242.88,146.78 h -2.74 l -1.09,-2.84 h -4.99 l -1.03,2.84 h -2.67 l 4.86,-12.48 h 2.67 l 5,12.48 z m -4.64,-4.94 -1.72,-4.63 -1.69,4.63 z"
         id="path154"
         style="stroke-width:0.223379" /><path
         class="cls-1"
         d="M 255.55,146.78 V 134.4 h 2.52 v 10.28 h 6.27 v 2.1 z"
         id="path156"
         style="stroke-width:0.223379" /><path
         class="cls-3"
         d="m 19.13,84.02 v 27.4 h 15.88 v 8.93 H 9.06 V 84.02 Z"
         id="path158"
         style="stroke-width:0.223379" /><path
         class="cls-3"
         d="m 48.87,121.03 c -1.66,0 -3.32,-0.31 -4.98,-0.93 -4.84,-2.44 -7.27,-6.85 -7.27,-13.24 v -0.31 c 0,-2.58 0.59,-4.9 1.76,-6.95 2.54,-3.88 5.87,-5.81 9.97,-5.81 h 1.35 c 2.2,0 4.29,0.83 6.28,2.49 v -2.39 h 10.38 l -0.03,26.47 H 55.92 v -1.82 h -0.1 c -1.99,1.66 -4.31,2.49 -6.96,2.49 z m -1.25,-13.44 c 0,1.57 0.17,2.8 0.52,3.69 0.62,1.45 1.87,2.18 3.74,2.18 0.36,-0.07 0.71,-0.1 1.04,-0.1 2.21,-0.43 3.32,-2.42 3.32,-5.97 -0.07,-2.61 -0.31,-4.1 -0.73,-4.46 0,-0.88 -1.11,-1.44 -3.32,-1.66 h -0.62 c -0.5,0 -1.13,0.1 -1.87,0.31 -1.38,0.92 -2.08,2.65 -2.08,5.19 v 0.83 z"
         id="path160"
         style="stroke-width:0.223379" /><path
         class="cls-3"
         d="m 93.45,115.17 -1.92,5.19 h -11 L 95.06,84.03 h 9.34 l 14.53,36.33 h -11 l -1.84,-5.19 z m 9.89,-7.79 -3.43,-9.65 -3.58,9.65 z"
         id="path162"
         style="stroke-width:0.223379" /><path
         class="cls-3"
         d="m 137.4,120.36 v -13.81 c 0,-2.58 -0.9,-4.17 -2.7,-4.78 -0.38,-0.07 -0.69,-0.1 -0.93,-0.1 h -0.62 c -0.97,0 -1.75,1.07 -2.34,3.22 -0.07,0.26 -0.1,0.57 -0.1,0.93 v 14.53 h -9.86 V 93.88 h 9.86 v 3.32 c 1.49,-2.84 3.72,-4.26 6.7,-4.26 h 0.73 c 3.24,0 5.93,1.54 8.1,4.62 0.73,-1.25 2.09,-2.49 4.1,-3.74 1.04,-0.59 2.23,-0.88 3.58,-0.88 h 0.73 c 4.27,0 7.15,2.15 8.62,6.44 0.28,1.3 0.42,2.47 0.42,3.53 v 17.44 h -9.76 v -13.81 c 0,-2.58 -0.9,-4.17 -2.7,-4.78 -0.38,-0.07 -0.69,-0.1 -0.93,-0.1 h -0.62 c -0.97,0 -1.75,1.07 -2.34,3.22 -0.07,0.26 -0.1,0.57 -0.1,0.93 v 14.53 h -9.81 z"
         id="path164"
         style="stroke-width:0.223379" /><path
         class="cls-3"
         d="m 167.18,91.29 v -7.27 h 10.38 v 7.27 z m 10.38,2.6 v 26.47 H 167.18 V 93.89 Z"
         id="path166"
         style="stroke-width:0.223379" /><path
         class="cls-3"
         d="m 192.03,92.69 h 1.22 c 3.74,0 7.53,1.04 11.39,3.11 0,0.17 -1.13,2.25 -3.4,6.23 l -3.55,-0.99 c -1.7,-0.48 -3.12,-0.73 -4.28,-0.73 h -0.65 c -1.06,0 -1.68,0.45 -1.87,1.35 0,0.57 1.38,1.16 4.15,1.76 3.94,1.07 6.56,2.2 7.84,3.37 1.61,1.4 2.41,3.27 2.41,5.61 0,4.83 -2.85,7.84 -8.54,9.03 -1.26,0.14 -2.28,0.21 -3.06,0.21 h -0.78 c -4.9,0 -9.39,-1.35 -13.47,-4.05 v -0.1 c 2.46,-3.86 3.74,-5.8 3.84,-5.81 h 0.1 c 2.92,1.56 5.86,2.34 8.82,2.34 h 0.65 c 1.54,0 2.31,-0.35 2.31,-1.04 0,-0.97 -1.83,-1.8 -5.48,-2.49 -4.01,-1.07 -6.63,-2.58 -7.84,-4.52 -0.73,-1.28 -1.09,-2.63 -1.09,-4.05 0,-4.69 2.85,-7.7 8.54,-9.03 1.09,-0.14 2,-0.21 2.72,-0.21 z"
         id="path168"
         style="stroke-width:0.223379" /><path
         class="cls-3"
         d="m 209.52,93.89 v -9.6 h 10.38 v 9.6 h 7.76 v 7.32 h -7.76 v 7.11 c 0,1.19 0.38,2.32 1.14,3.37 0.59,0.83 2.79,1.34 6.62,1.53 v 7.14 h -4.2 c -2.42,0 -4.84,-0.41 -7.27,-1.25 -4.45,-2.16 -6.67,-6.45 -6.67,-12.87 v -5.03 h -2.62 v -7.32 z"
         id="path170"
         style="stroke-width:0.223379" /><path
         class="cls-3"
         d="m 241.35,121.03 c -1.66,0 -3.32,-0.31 -4.98,-0.93 -4.84,-2.44 -7.27,-6.85 -7.27,-13.24 v -0.31 c 0,-2.58 0.59,-4.9 1.76,-6.95 2.54,-3.88 5.87,-5.81 9.97,-5.81 h 1.35 c 2.2,0 4.29,0.83 6.28,2.49 v -2.39 h 10.38 l -0.03,26.47 H 248.4 v -1.82 h -0.1 c -1.99,1.66 -4.31,2.49 -6.95,2.49 z m -1.25,-13.44 c 0,1.57 0.17,2.8 0.52,3.69 0.62,1.45 1.87,2.18 3.74,2.18 0.36,-0.07 0.71,-0.1 1.04,-0.1 2.21,-0.43 3.32,-2.42 3.32,-5.97 -0.07,-2.61 -0.31,-4.1 -0.73,-4.46 0,-0.88 -1.11,-1.44 -3.32,-1.66 h -0.62 c -0.5,0 -1.13,0.1 -1.87,0.31 -1.38,0.92 -2.08,2.65 -2.08,5.19 v 0.83 z"
         id="path172"
         style="stroke-width:0.223379" /><path
         class="cls-3"
         d="m 273.45,121.03 c -1.66,0 -3.32,-0.31 -4.98,-0.93 -4.84,-2.44 -7.27,-6.85 -7.27,-13.24 v -0.31 c 0,-2.58 0.59,-4.9 1.76,-6.95 2.54,-3.88 5.87,-5.81 9.97,-5.81 h 1.35 c 2.2,0 4.29,0.83 6.28,2.49 V 84.03 h 10.38 l -0.03,36.33 H 280.5 v -1.82 h -0.1 c -1.99,1.66 -4.31,2.49 -6.95,2.49 z m -1.25,-13.44 c 0,1.57 0.17,2.8 0.52,3.69 0.62,1.45 1.87,2.18 3.74,2.18 0.36,-0.07 0.71,-0.1 1.04,-0.1 2.21,-0.43 3.32,-2.42 3.32,-5.97 -0.07,-2.61 -0.31,-4.1 -0.73,-4.46 0,-0.88 -1.11,-1.44 -3.32,-1.66 h -0.62 c -0.5,0 -1.12,0.1 -1.87,0.31 -1.38,0.92 -2.08,2.65 -2.08,5.19 v 0.83 z"
         id="path174"
         style="stroke-width:0.223379" /><path
         class="cls-1"
         d="m 155.91,16.31 c -1.96,-3.19 -6.05,-4.24 -9.31,-2.41 l -0.06,0.03 c -0.06,0.03 -0.12,0.06 -0.18,0.1 -0.03,0.02 -0.06,0.04 -0.08,0.05 -3.19,2.02 -4.18,6.28 -2.2,9.49 0.97,1.58 2.5,2.68 4.3,3.11 0.54,0.13 1.09,0.19 1.63,0.19 1.27,0 2.51,-0.35 3.61,-1.03 1.58,-0.97 2.68,-2.5 3.11,-4.3 0.43,-1.8 0.13,-3.67 -0.83,-5.24 z"
         id="path176"
         style="stroke-width:0.223379" /><path
         class="cls-1"
         d="m 183.42,40.79 c 1.13,0.69 2.38,1.03 3.62,1.03 2.33,0 4.61,-1.17 5.92,-3.3 1.98,-3.22 0.99,-7.47 -2.19,-9.48 -0.03,-0.02 -0.05,-0.04 -0.09,-0.06 -0.06,-0.03 -0.11,-0.07 -0.17,-0.1 l -0.06,-0.03 c -3.26,-1.84 -7.35,-0.78 -9.31,2.41 -2,3.26 -0.98,7.54 2.28,9.54 z"
         id="path178"
         style="stroke-width:0.223379" /><path
         class="cls-1"
         d="M 118.86,31.24 C 116.9,28.05 112.81,27 109.55,28.83 l -0.06,0.03 c -0.06,0.03 -0.12,0.06 -0.17,0.1 -0.03,0.02 -0.06,0.04 -0.09,0.06 -3.18,2.01 -4.17,6.27 -2.19,9.48 1.31,2.13 3.59,3.3 5.92,3.3 1.24,0 2.49,-0.33 3.62,-1.03 3.26,-2 4.28,-6.28 2.28,-9.54 z"
         id="path180"
         style="stroke-width:0.223379" /><path
         class="cls-4"
         d="m 204.15,46.28 c 0,-0.72 -0.04,-1.44 -0.1,-2.14 -0.61,-0.05 -1.22,-0.08 -1.84,-0.08 -13.19,0 -23.89,10.7 -23.89,23.89 0,0.72 0.04,1.44 0.1,2.14 0.61,0.05 1.22,0.08 1.84,0.08 13.19,0 23.89,-10.7 23.89,-23.89 z"
         id="path182"
         style="stroke-width:0.223379" /><path
         class="cls-4"
         d="m 174.88,36.43 c 0,-4.52 -1.26,-8.75 -3.44,-12.35 -8.83,3.51 -15.07,12.12 -15.07,22.2 0,4.52 1.26,8.75 3.44,12.35 8.83,-3.51 15.07,-12.12 15.07,-22.2 z"
         id="path184"
         style="stroke-width:0.223379" /><path
         class="cls-2"
         d="m 95.85,46.28 c 0,-0.72 0.04,-1.44 0.1,-2.14 0.61,-0.05 1.22,-0.08 1.84,-0.08 13.19,0 23.89,10.7 23.89,23.89 0,0.72 -0.04,1.44 -0.1,2.14 -0.61,0.05 -1.22,0.08 -1.84,0.08 -13.19,0 -23.89,-10.7 -23.89,-23.89 z"
         id="path186"
         style="stroke-width:0.223379" /><path
         class="cls-2"
         d="m 125.12,36.43 c 0,-4.52 1.26,-8.75 3.44,-12.35 8.83,3.51 15.07,12.12 15.07,22.2 0,4.52 -1.26,8.75 -3.44,12.35 -8.83,-3.51 -15.07,-12.12 -15.07,-22.2 z"
         id="path188"
         style="stroke-width:0.223379" /></g></g></svg>
