<?xml version="1.0" encoding="UTF-8" standalone="no"?>
<!-- Created with Inkscape (http://www.inkscape.org/) -->

<svg
   width="236.36929mm"
   height="158.75mm"
   viewBox="0 0 236.36929 158.75"
   version="1.1"
   id="svg5"
   xml:space="preserve"
   inkscape:version="1.2.1 (9c6d41e410, 2022-07-14)"
   sodipodi:docname="las_plazas.svg"
   xmlns:inkscape="http://www.inkscape.org/namespaces/inkscape"
   xmlns:sodipodi="http://sodipodi.sourceforge.net/DTD/sodipodi-0.dtd"
   xmlns="http://www.w3.org/2000/svg"
   xmlns:svg="http://www.w3.org/2000/svg"><sodipodi:namedview
     id="namedview7"
     pagecolor="#ffffff"
     bordercolor="#000000"
     borderopacity="0.25"
     inkscape:showpageshadow="2"
     inkscape:pageopacity="0.0"
     inkscape:pagecheckerboard="0"
     inkscape:deskcolor="#d1d1d1"
     inkscape:document-units="mm"
     showgrid="false"
     inkscape:zoom="0.77415123"
     inkscape:cx="342.31038"
     inkscape:cy="209.90731"
     inkscape:window-width="1920"
     inkscape:window-height="1001"
     inkscape:window-x="2391"
     inkscape:window-y="-9"
     inkscape:window-maximized="1"
     inkscape:current-layer="layer1" /><defs
     id="defs2"><style
       id="style132">.cls-1{fill:#2a2924;}.cls-2{fill:#9f5b17;}</style></defs><g
     inkscape:label="Capa 1"
     inkscape:groupmode="layer"
     id="layer1"
     transform="translate(-14.412874,-93.38981)"><g
       id="g224"
       transform="matrix(0.85644152,0,0,0.85644152,4.1355757,81.990573)"
       style="stroke-width:0.308933"><path
         class="cls-2"
         d="m 152.33,13.31 -77.57,77.57 41.94,41.94 35.63,-35.63 35.63,35.63 41.94,-41.94 z m -24.47,94.09 -19.91,-19.91 -10.43,10.43 -7.96,-7.96 28.08,-28.08 27.87,27.87 -17.64,17.64 z m 25.3,-25.1 -28.08,-28.08 27.87,-27.87 17.64,17.64 -19.91,19.91 10.43,10.43 -7.96,7.96 z m 26.47,5.95 -10.43,10.43 -7.96,-7.96 28.08,-28.08 27.87,27.87 -17.64,17.64 -19.91,-19.91 z"
         id="path136"
         style="stroke-width:0.308933" /><path
         class="cls-1"
         d="m 29.51,194.1 v 4.12 H 12 V 173.9 h 4.65 v 20.2 z"
         id="path138"
         style="stroke-width:0.308933" /><path
         class="cls-1"
         d="M 36.88,198.22 49.3,173.94 h 0.47 l 12.42,24.28 H 57.14 L 55.25,194.4 H 43.79 l -1.86,3.82 z m 9.17,-7.87 h 6.94 l -3.45,-7.34 z"
         id="path140"
         style="stroke-width:0.308933" /><path
         class="cls-1"
         d="m 69.43,195.03 2.52,-3.72 c 1.22,0.84 2.47,1.57 3.77,2.18 1.3,0.61 2.65,0.91 4.07,0.91 0.75,0 1.42,-0.09 1.99,-0.28 0.58,-0.19 1.06,-0.43 1.46,-0.73 0.4,-0.3 0.7,-0.64 0.9,-1.03 0.2,-0.39 0.3,-0.77 0.3,-1.15 0,-0.49 -0.15,-0.9 -0.45,-1.25 -0.3,-0.34 -0.7,-0.63 -1.2,-0.85 -0.5,-0.22 -1.09,-0.41 -1.76,-0.56 -0.68,-0.16 -1.38,-0.3 -2.11,-0.43 -0.49,-0.09 -1.05,-0.19 -1.69,-0.32 -0.64,-0.12 -1.31,-0.29 -1.99,-0.5 -0.69,-0.21 -1.36,-0.49 -2.03,-0.83 -0.66,-0.34 -1.26,-0.78 -1.79,-1.3 -0.53,-0.52 -0.96,-1.14 -1.28,-1.86 -0.32,-0.72 -0.48,-1.57 -0.48,-2.54 0,-1.42 0.29,-2.6 0.86,-3.54 0.58,-0.94 1.31,-1.68 2.21,-2.23 0.9,-0.55 1.89,-0.92 2.99,-1.15 1.1,-0.22 2.15,-0.33 3.17,-0.33 1.02,0 1.93,0.07 2.72,0.2 0.8,0.13 1.54,0.33 2.23,0.58 0.69,0.26 1.36,0.58 2.01,0.96 0.65,0.38 1.36,0.85 2.11,1.38 l -2.59,3.65 c -1.15,-0.8 -2.26,-1.41 -3.32,-1.83 -1.06,-0.42 -2.18,-0.63 -3.35,-0.63 -0.4,0 -0.85,0.05 -1.36,0.15 -0.51,0.1 -0.99,0.26 -1.44,0.48 -0.45,0.22 -0.83,0.5 -1.13,0.85 -0.3,0.34 -0.45,0.76 -0.45,1.25 0,0.49 0.18,0.9 0.53,1.23 0.35,0.33 0.81,0.61 1.36,0.83 0.55,0.22 1.16,0.41 1.83,0.56 0.66,0.16 1.31,0.31 1.93,0.47 0.47,0.11 1.01,0.22 1.64,0.33 0.63,0.11 1.28,0.27 1.96,0.46 0.68,0.2 1.35,0.47 2.01,0.8 0.66,0.33 1.26,0.76 1.78,1.28 0.52,0.52 0.94,1.16 1.26,1.93 0.32,0.76 0.48,1.69 0.48,2.77 0,1.26 -0.22,2.36 -0.66,3.29 -0.44,0.93 -1.07,1.7 -1.89,2.31 -0.82,0.61 -1.79,1.07 -2.92,1.38 -1.13,0.31 -2.38,0.47 -3.75,0.47 -1.26,0 -2.38,-0.09 -3.34,-0.28 -0.96,-0.19 -1.84,-0.44 -2.64,-0.76 -0.8,-0.32 -1.55,-0.7 -2.26,-1.15 -0.71,-0.44 -1.44,-0.93 -2.19,-1.46 z"
         id="path142"
         style="stroke-width:0.308933" /><path
         class="cls-1"
         d="m 128.99,173.91 c 1.2,0 2.32,0.23 3.37,0.68 1.05,0.45 1.96,1.07 2.74,1.84 0.78,0.77 1.39,1.69 1.84,2.74 0.45,1.05 0.68,2.18 0.68,3.37 0,1.19 -0.2,2.3 -0.6,3.32 -0.4,1.02 -0.99,1.91 -1.76,2.67 -0.78,0.76 -1.75,1.36 -2.94,1.79 -1.19,0.43 -2.55,0.65 -4.1,0.65 h -5.41 v 7.24 h -4.65 v -24.32 h 10.83 z m 0,12.89 c 0.69,0 1.28,-0.12 1.79,-0.35 0.51,-0.23 0.92,-0.55 1.25,-0.95 0.32,-0.4 0.56,-0.85 0.71,-1.36 0.16,-0.51 0.23,-1.04 0.23,-1.59 0,-0.55 -0.1,-1.1 -0.3,-1.64 -0.2,-0.54 -0.49,-1.02 -0.86,-1.44 -0.38,-0.42 -0.84,-0.76 -1.39,-1.03 -0.55,-0.27 -1.2,-0.4 -1.93,-0.4 h -5.68 v 8.77 h 6.18 z"
         id="path144"
         style="stroke-width:0.308933" /><path
         class="cls-1"
         d="m 165.1,194.1 v 4.12 H 147.59 V 173.9 h 4.65 v 20.2 z"
         id="path146"
         style="stroke-width:0.308933" /><path
         class="cls-1"
         d="m 172.47,198.22 12.42,-24.28 h 0.47 l 12.42,24.28 h -5.05 l -1.89,-3.82 h -11.46 l -1.86,3.82 z m 9.17,-7.87 h 6.94 l -3.45,-7.34 z"
         id="path148"
         style="stroke-width:0.308933" /><path
         class="cls-1"
         d="m 227.31,174.5 -13.55,19.4 h 13.09 v 4.32 h -21.26 v -0.53 l 13.59,-19.47 h -12.56 v -4.29 h 20.69 z"
         id="path150"
         style="stroke-width:0.308933" /><path
         class="cls-1"
         d="m 234.95,198.22 12.42,-24.28 h 0.47 l 12.42,24.28 h -5.05 l -1.89,-3.82 h -11.46 l -1.86,3.82 z m 9.17,-7.87 h 6.94 l -3.45,-7.34 z"
         id="path152"
         style="stroke-width:0.308933" /><path
         class="cls-1"
         d="m 267.51,195.03 2.52,-3.72 c 1.22,0.84 2.47,1.57 3.77,2.18 1.3,0.61 2.65,0.91 4.07,0.91 0.75,0 1.42,-0.09 1.99,-0.28 0.58,-0.19 1.06,-0.43 1.46,-0.73 0.4,-0.3 0.7,-0.64 0.9,-1.03 0.2,-0.39 0.3,-0.77 0.3,-1.15 0,-0.49 -0.15,-0.9 -0.45,-1.25 -0.3,-0.34 -0.7,-0.63 -1.2,-0.85 -0.5,-0.22 -1.09,-0.41 -1.76,-0.56 -0.68,-0.16 -1.38,-0.3 -2.11,-0.43 -0.49,-0.09 -1.05,-0.19 -1.69,-0.32 -0.64,-0.12 -1.31,-0.29 -1.99,-0.5 -0.69,-0.21 -1.36,-0.49 -2.03,-0.83 -0.66,-0.34 -1.26,-0.78 -1.79,-1.3 -0.53,-0.52 -0.96,-1.14 -1.28,-1.86 -0.32,-0.72 -0.48,-1.57 -0.48,-2.54 0,-1.42 0.29,-2.6 0.86,-3.54 0.58,-0.94 1.31,-1.68 2.21,-2.23 0.9,-0.55 1.89,-0.92 2.99,-1.15 1.1,-0.22 2.15,-0.33 3.17,-0.33 1.02,0 1.93,0.07 2.72,0.2 0.8,0.13 1.54,0.33 2.23,0.58 0.69,0.26 1.36,0.58 2.01,0.96 0.65,0.38 1.36,0.85 2.11,1.38 l -2.59,3.65 c -1.15,-0.8 -2.26,-1.41 -3.32,-1.83 -1.06,-0.42 -2.18,-0.63 -3.35,-0.63 -0.4,0 -0.85,0.05 -1.36,0.15 -0.51,0.1 -0.99,0.26 -1.44,0.48 -0.45,0.22 -0.83,0.5 -1.13,0.85 -0.3,0.34 -0.45,0.76 -0.45,1.25 0,0.49 0.18,0.9 0.53,1.23 0.35,0.33 0.81,0.61 1.36,0.83 0.55,0.22 1.16,0.41 1.83,0.56 0.66,0.16 1.31,0.31 1.93,0.47 0.47,0.11 1.01,0.22 1.64,0.33 0.63,0.11 1.28,0.27 1.96,0.46 0.68,0.2 1.35,0.47 2.01,0.8 0.66,0.33 1.26,0.76 1.78,1.28 0.52,0.52 0.94,1.16 1.26,1.93 0.32,0.76 0.48,1.69 0.48,2.77 0,1.26 -0.22,2.36 -0.66,3.29 -0.44,0.93 -1.07,1.7 -1.89,2.31 -0.82,0.61 -1.79,1.07 -2.92,1.38 -1.13,0.31 -2.38,0.47 -3.75,0.47 -1.26,0 -2.38,-0.09 -3.34,-0.28 -0.96,-0.19 -1.84,-0.44 -2.64,-0.76 -0.8,-0.32 -1.55,-0.7 -2.26,-1.15 -0.71,-0.44 -1.44,-0.93 -2.19,-1.46 z"
         id="path154"
         style="stroke-width:0.308933" /><path
         class="cls-1"
         d="m 21.09,163.01 h -1.68 l -3.35,-4.77 h -0.94 v 4.77 h -1.36 v -11.6 h 3.02 c 2.11,0 3.62,1.38 3.62,3.42 0,1.58 -0.79,2.77 -2.76,3.35 l 3.45,4.82 z m -5.98,-6.02 h 1.75 c 1.23,0 2.09,-0.86 2.09,-2.16 0,-1.64 -1.11,-2.14 -2.17,-2.14 h -1.67 v 4.29 z"
         id="path156"
         style="stroke-width:0.308933" /><path
         class="cls-1"
         d="m 29.83,161.73 h 4.69 v 1.28 h -6.04 v -11.6 h 5.88 v 1.3 h -4.52 v 3.39 h 4.04 v 1.28 h -4.04 v 4.35 z"
         id="path158"
         style="stroke-width:0.308933" /><path
         class="cls-1"
         d="m 42.73,160.41 c 0.65,1.44 1.92,1.42 2.3,1.42 1.75,0 2.35,-1.02 2.35,-2.09 0,-1.07 -0.52,-1.67 -2.4,-2.48 -1.42,-0.61 -2.86,-1.45 -2.86,-3 0,-1.45 0.87,-2.99 3.31,-2.99 0.98,0 1.99,0.4 2.66,1.11 l -1.02,0.83 c -0.39,-0.38 -0.96,-0.63 -1.64,-0.63 -1.23,0 -1.93,0.55 -1.93,1.69 0,0.87 1.19,1.52 2.2,1.92 2.14,0.83 3.05,1.89 3.05,3.57 0,2.06 -1.43,3.37 -3.66,3.37 -1.21,0 -2.89,-0.39 -3.71,-2.39 l 1.34,-0.32 z"
         id="path160"
         style="stroke-width:0.308933" /><path
         class="cls-1"
         d="m 56.99,151.42 h 1.36 v 11.59 h -1.36 z"
         id="path162"
         style="stroke-width:0.308933" /><path
         class="cls-1"
         d="m 70.19,151.41 c 2.76,0 5.52,2.14 5.52,5.75 0,3.61 -2.1,5.85 -5.52,5.85 h -3.23 v -11.6 z m 0.06,10.32 c 2.55,0 4.04,-1.9 4.04,-4.57 0,-2.42 -1.52,-4.46 -4.06,-4.46 h -1.92 v 9.03 h 1.93 z"
         id="path164"
         style="stroke-width:0.308933" /><path
         class="cls-1"
         d="m 84.92,161.73 h 4.69 v 1.28 h -6.04 v -11.6 h 5.88 v 1.3 h -4.52 v 3.39 h 4.04 v 1.28 h -4.04 v 4.35 z"
         id="path166"
         style="stroke-width:0.308933" /><path
         class="cls-1"
         d="m 105.22,159.92 v -8.51 h 1.36 v 11.96 l -7.78,-8.79 v 8.44 h -1.36 v -11.96 l 7.78,8.88 z"
         id="path168"
         style="stroke-width:0.308933" /><path
         class="cls-1"
         d="m 123.68,152.84 -1.15,0.77 c -0.74,-0.68 -1.48,-1.04 -2.48,-1.04 -2.36,0 -4.16,1.95 -4.16,4.62 0,2.67 1.75,4.64 4.16,4.64 1.17,0 2.2,-0.42 3.03,-1.33 l 1.05,0.89 c -0.99,1.11 -2.47,1.72 -4.08,1.72 -3.23,0 -5.58,-2.48 -5.58,-5.92 0,-3.44 2.39,-5.91 5.57,-5.91 1.45,0 2.64,0.55 3.63,1.56 z"
         id="path170"
         style="stroke-width:0.308933" /><path
         class="cls-1"
         d="m 131.82,151.42 h 1.36 v 11.59 h -1.36 z"
         id="path172"
         style="stroke-width:0.308933" /><path
         class="cls-1"
         d="m 149.75,163.01 -1.25,-2.95 h -5.2 l -1.26,2.95 h -1.47 l 5.32,-12.19 5.32,12.19 h -1.47 z m -5.91,-4.24 h 4.12 l -2.06,-4.85 z"
         id="path174"
         style="stroke-width:0.308933" /><path
         class="cls-1"
         d="m 158.47,163.01 v -11.6 h 1.36 v 10.32 h 4.61 v 1.28 z"
         id="path176"
         style="stroke-width:0.308933" /><path
         class="cls-1"
         d="m 194.98,151.41 c 2.09,0 3.45,1.31 3.45,3.33 0,0.95 -0.33,1.81 -0.93,2.43 -0.63,0.65 -1.67,1.07 -2.67,1.07 h -1.67 v 4.77 h -1.35 v -11.6 z m -0.15,5.55 c 1.11,0 2.2,-0.67 2.2,-2.21 0,-1.39 -0.72,-2.05 -2.04,-2.05 h -1.82 v 4.26 h 1.67 z"
         id="path178"
         style="stroke-width:0.308933" /><path
         class="cls-1"
         d="m 213.66,163.01 h -1.68 l -3.35,-4.77 h -0.94 v 4.77 h -1.36 v -11.6 h 3.02 c 2.11,0 3.62,1.38 3.62,3.42 0,1.58 -0.79,2.77 -2.76,3.35 l 3.45,4.82 z m -5.98,-6.02 h 1.75 c 1.23,0 2.09,-0.86 2.09,-2.16 0,-1.64 -1.11,-2.14 -2.17,-2.14 h -1.67 v 4.29 z"
         id="path180"
         style="stroke-width:0.308933" /><path
         class="cls-1"
         d="m 221.28,151.42 h 1.36 v 11.59 h -1.36 z"
         id="path182"
         style="stroke-width:0.308933" /><path
         class="cls-1"
         d="m 229.93,151.41 h 1.47 l 3.46,8.5 3.46,-8.5 h 1.47 l -4.93,11.84 z"
         id="path184"
         style="stroke-width:0.308933" /><path
         class="cls-1"
         d="m 253.61,163.01 -1.25,-2.95 h -5.2 l -1.26,2.95 h -1.47 l 5.32,-12.19 5.32,12.19 h -1.47 z m -5.91,-4.24 h 4.12 l -2.06,-4.85 z"
         id="path186"
         style="stroke-width:0.308933" /><path
         class="cls-1"
         d="m 265.55,151.41 c 2.76,0 5.52,2.14 5.52,5.75 0,3.61 -2.1,5.85 -5.52,5.85 h -3.23 v -11.6 z m 0.06,10.32 c 2.55,0 4.04,-1.9 4.04,-4.57 0,-2.42 -1.52,-4.46 -4.06,-4.46 h -1.92 v 9.03 h 1.93 z"
         id="path188"
         style="stroke-width:0.308933" /><path
         class="cls-1"
         d="m 286.53,163.01 -1.25,-2.95 h -5.2 l -1.26,2.95 h -1.47 l 5.32,-12.19 5.32,12.19 h -1.47 z m -5.91,-4.24 h 4.12 l -2.06,-4.85 z"
         id="path190"
         style="stroke-width:0.308933" /></g></g></svg>
