<?xml version="1.0" encoding="UTF-8" standalone="no"?>
<svg
   id="Capa_1"
   viewBox="0 0 1084.9616 600"
   version="1.1"
   sodipodi:docname="logo_rinconada.svg"
   width="1084.9615"
   height="600"
   inkscape:version="1.2.1 (9c6d41e410, 2022-07-14)"
   xmlns:inkscape="http://www.inkscape.org/namespaces/inkscape"
   xmlns:sodipodi="http://sodipodi.sourceforge.net/DTD/sodipodi-0.dtd"
   xmlns="http://www.w3.org/2000/svg"
   xmlns:svg="http://www.w3.org/2000/svg">
  <sodipodi:namedview
     id="namedview59"
     pagecolor="#ffffff"
     bordercolor="#000000"
     borderopacity="0.25"
     inkscape:showpageshadow="2"
     inkscape:pageopacity="0.0"
     inkscape:pagecheckerboard="0"
     inkscape:deskcolor="#d1d1d1"
     showgrid="false"
     inkscape:zoom="0.59666667"
     inkscape:cx="325.13966"
     inkscape:cy="404.7486"
     inkscape:window-width="1920"
     inkscape:window-height="1001"
     inkscape:window-x="2391"
     inkscape:window-y="-9"
     inkscape:window-maximized="1"
     inkscape:current-layer="Capa_1" />
  <defs
     id="defs4">
    <style
       id="style2">.cls-1{fill:#728255;}.cls-2{fill:#97a87c;}.cls-3{fill:#616d38;}.cls-4{fill:#b4c89a;}.cls-5{fill:#29371c;}</style>
  </defs>
  <g
     id="g314"
     transform="matrix(3.8461538,0,0,3.8461538,-34.461538,-34.615384)"
     style="stroke-width:0.26">
    <path
       class="cls-5"
       d="m 22.74,106.01 c 8.26,0 12.39,4.76 12.39,10.62 0,4.23 -2.31,8.21 -7.49,9.75 l 7.78,13.35 H 26.15 L 19.14,127 h -1.97 v 12.73 H 8.96 v -33.71 h 13.78 z m -0.48,6.82 h -5.09 v 8.36 h 5.09 c 3.07,0 4.51,-1.59 4.51,-4.23 0,-2.5 -1.44,-4.13 -4.51,-4.13 z"
       id="path6"
       style="stroke-width:0.26" />
    <path
       class="cls-5"
       d="m 39.11,106.01 h 8.21 v 33.71 h -8.21 z"
       id="path8"
       style="stroke-width:0.26" />
    <path
       class="cls-5"
       d="m 82.65,106.01 v 33.71 H 74.44 L 60.7,118.92 v 20.8 h -8.21 v -33.71 h 8.21 l 13.74,20.89 v -20.89 z"
       id="path10"
       style="stroke-width:0.26" />
    <path
       class="cls-5"
       d="m 103.18,105.63 c 8.02,0 14.07,4.51 15.99,11.81 h -9.03 c -1.39,-2.88 -3.94,-4.32 -7.06,-4.32 -5.04,0 -8.5,3.75 -8.5,9.7 0,5.95 3.46,9.7 8.5,9.7 3.12,0 5.67,-1.44 7.06,-4.32 h 9.03 c -1.92,7.3 -7.97,11.77 -15.99,11.77 -9.94,0 -16.95,-7.06 -16.95,-17.14 0,-10.08 7.01,-17.19 16.95,-17.19 z"
       id="path12"
       style="stroke-width:0.26" />
    <path
       class="cls-5"
       d="m 138.32,140.06 c -9.56,0 -17.34,-7.16 -17.34,-17.29 0,-10.13 7.78,-17.24 17.34,-17.24 9.56,0 17.24,7.11 17.24,17.24 0,10.13 -7.68,17.29 -17.24,17.29 z m 0,-7.49 c 5.38,0 8.89,-3.89 8.89,-9.8 0,-5.91 -3.51,-9.8 -8.89,-9.8 -5.38,0 -8.93,3.79 -8.93,9.8 0,6.01 3.46,9.8 8.93,9.8 z"
       id="path14"
       style="stroke-width:0.26" />
    <path
       class="cls-5"
       d="m 189.33,106.01 v 33.71 h -8.21 l -13.73,-20.8 v 20.8 h -8.21 v -33.71 h 8.21 l 13.73,20.89 v -20.89 z"
       id="path16"
       style="stroke-width:0.26" />
    <path
       class="cls-5"
       d="m 214.63,133.77 h -12.58 l -2.02,5.95 h -8.6 l 12.2,-33.71 h 9.51 l 12.2,33.71 h -8.69 z m -6.29,-18.68 -4.13,12.34 h 8.31 z"
       id="path18"
       style="stroke-width:0.26" />
    <path
       class="cls-5"
       d="m 257.75,122.87 c 0,9.99 -6.92,16.86 -17.67,16.86 h -12.63 v -33.71 h 12.63 c 10.76,0 17.67,6.82 17.67,16.86 z m -18.2,9.75 c 6.19,0 9.85,-3.56 9.85,-9.75 0,-6.19 -3.65,-9.85 -9.85,-9.85 h -3.89 v 19.6 z"
       id="path20"
       style="stroke-width:0.26" />
    <path
       class="cls-5"
       d="m 280.34,133.77 h -12.58 l -2.02,5.95 h -8.6 l 12.2,-33.71 h 9.51 l 12.2,33.71 h -8.69 z m -6.29,-18.68 -4.13,12.34 h 8.31 z"
       id="path22"
       style="stroke-width:0.26" />
    <path
       class="cls-2"
       d="m 43.91,150.95 c 3.35,0 5.02,1.93 5.02,4.26 0,1.69 -0.94,3.41 -3.17,4.01 l 3.33,5.64 h -3.23 l -3.07,-5.42 h -1.31 v 5.42 h -2.79 v -13.91 z m -0.1,2.31 h -2.33 v 4.09 h 2.33 c 1.55,0 2.25,-0.82 2.25,-2.07 0,-1.25 -0.7,-2.01 -2.25,-2.01 z"
       id="path24"
       style="stroke-width:0.26" />
    <path
       class="cls-2"
       d="M 69.48,153.2 H 64.2 v 3.49 h 4.68 v 2.21 H 64.2 v 3.69 h 5.28 v 2.27 h -8.07 v -13.93 h 8.07 z"
       id="path26"
       style="stroke-width:0.26" />
    <path
       class="cls-2"
       d="m 86.78,165 c -2.89,0 -5.12,-1.52 -5.16,-4.15 h 2.99 c 0.08,1.12 0.82,1.85 2.11,1.85 1.29,0 2.09,-0.7 2.09,-1.69 0,-3.01 -7.17,-1.2 -7.15,-6.24 0,-2.51 2.03,-4.02 4.9,-4.02 2.87,0 4.8,1.45 4.98,3.97 h -3.07 c -0.06,-0.92 -0.8,-1.63 -1.99,-1.66 -1.1,-0.04 -1.91,0.5 -1.91,1.63 0,2.79 7.14,1.24 7.14,6.14 0,2.19 -1.76,4.17 -4.92,4.17 z"
       id="path28"
       style="stroke-width:0.26" />
    <path
       class="cls-2"
       d="m 104.06,150.95 h 2.79 v 13.91 h -2.79 z"
       id="path30"
       style="stroke-width:0.26" />
    <path
       class="cls-2"
       d="m 131.76,157.93 c 0,4.2 -2.89,6.93 -7.33,6.93 h -4.86 v -13.91 h 4.86 c 4.44,0 7.33,2.75 7.33,6.98 z m -7.43,4.56 c 2.93,0 4.58,-1.67 4.58,-4.56 0,-2.89 -1.65,-4.62 -4.58,-4.62 h -1.97 v 9.19 h 1.97 z"
       id="path32"
       style="stroke-width:0.26" />
    <path
       class="cls-2"
       d="m 151.87,153.2 h -5.28 v 3.49 h 4.68 v 2.21 h -4.68 v 3.69 h 5.28 v 2.27 h -8.07 v -13.93 h 8.07 z"
       id="path34"
       style="stroke-width:0.26" />
    <path
       class="cls-2"
       d="m 176.26,150.93 v 13.93 h -2.79 l -6.32,-9.55 v 9.55 h -2.79 v -13.93 h 2.79 l 6.32,9.56 v -9.56 z"
       id="path36"
       style="stroke-width:0.26" />
    <path
       class="cls-2"
       d="m 195.34,150.77 c 3.09,0 5.6,1.66 6.54,4.5 h -3.21 c -0.66,-1.34 -1.85,-1.99 -3.35,-1.99 -2.43,0 -4.17,1.77 -4.17,4.6 0,2.83 1.73,4.6 4.17,4.6 1.5,0 2.69,-0.66 3.35,-2.01 h 3.21 c -0.94,2.87 -3.45,4.5 -6.54,4.5 -4.01,0 -7.05,-2.93 -7.05,-7.09 0,-4.16 3.05,-7.11 7.05,-7.11 z"
       id="path38"
       style="stroke-width:0.26" />
    <path
       class="cls-2"
       d="m 214.22,150.95 h 2.79 v 13.91 h -2.79 z"
       id="path40"
       style="stroke-width:0.26" />
    <path
       class="cls-2"
       d="m 238.25,162.21 h -5.54 l -0.92,2.65 h -2.93 l 5,-13.93 h 3.25 l 5,13.93 h -2.95 l -0.92,-2.65 z m -2.77,-8.05 -2.01,5.82 h 4.03 l -2.01,-5.82 z"
       id="path42"
       style="stroke-width:0.26" />
    <path
       class="cls-2"
       d="m 256.73,150.95 v 11.7 h 4.58 v 2.21 h -7.37 v -13.91 z"
       id="path44"
       style="stroke-width:0.26" />
    <path
       class="cls-4"
       d="m 138.13,32.94 v 25.54 l 25.58,25.58 V 59.15 c 0,-14.27 -11.4,-25.86 -25.58,-26.22 z"
       id="path46"
       style="stroke-width:0.26" />
    <path
       class="cls-2"
       d="m 137.46,32.91 h -24.91 l 25.58,25.58 V 32.95 c -0.22,0 -0.44,-0.03 -0.67,-0.03 z"
       id="path48"
       style="stroke-width:0.26" />
    <path
       class="cls-1"
       d="m 112.55,32.91 v 24.91 c 0,4.32 1.06,8.39 2.92,11.99 h 33.98 z"
       id="path50"
       style="stroke-width:0.26" />
    <polygon
       class="cls-3"
       points="163.72,84.07 163.71,84.06 163.71,84.07 "
       id="polygon52"
       style="stroke-width:0.26" />
    <path
       class="cls-2"
       d="m 149.45,69.8 h -33.98 c 4.36,8.46 13.16,14.26 23.34,14.26 h 24.91 c 0,0 -14.26,-14.26 -14.26,-14.26 z"
       id="path54"
       style="stroke-width:0.26" />
    <path
       class="cls-5"
       d="m 162.54,9 c -4.32,0 -8.39,1.06 -11.99,2.92 -6.51,3.35 -11.44,9.34 -13.36,16.56 h 0.34 c 16.87,0 30.6,13.73 30.6,30.6 v 0.14 c 10.92,-2.99 18.99,-12.83 19.29,-24.63 0,-0.22 0.03,-0.44 0.03,-0.67 V 9 Z"
       id="path56"
       style="stroke-width:0.26" />
  </g>
</svg>
