<?xml version="1.0" encoding="UTF-8" standalone="no"?>
<!-- Created with Inkscape (http://www.inkscape.org/) -->

<svg
   width="220.50557mm"
   height="158.75mm"
   viewBox="0 0 220.50557 158.75"
   version="1.1"
   id="svg5"
   xml:space="preserve"
   inkscape:version="1.2.1 (9c6d41e410, 2022-07-14)"
   sodipodi:docname="san-roque.svg"
   xmlns:inkscape="http://www.inkscape.org/namespaces/inkscape"
   xmlns:sodipodi="http://sodipodi.sourceforge.net/DTD/sodipodi-0.dtd"
   xmlns="http://www.w3.org/2000/svg"
   xmlns:svg="http://www.w3.org/2000/svg"><sodipodi:namedview
     id="namedview7"
     pagecolor="#ffffff"
     bordercolor="#000000"
     borderopacity="0.25"
     inkscape:showpageshadow="2"
     inkscape:pageopacity="0.0"
     inkscape:pagecheckerboard="0"
     inkscape:deskcolor="#d1d1d1"
     inkscape:document-units="mm"
     showgrid="false"
     inkscape:zoom="0.54740759"
     inkscape:cx="569.95921"
     inkscape:cy="492.32054"
     inkscape:window-width="1920"
     inkscape:window-height="1001"
     inkscape:window-x="2391"
     inkscape:window-y="-9"
     inkscape:window-maximized="1"
     inkscape:current-layer="g218" /><defs
     id="defs2"><style
       id="style132">.cls-1{fill:#728255;}.cls-2{fill:#97a87c;}.cls-3{fill:#616d38;}.cls-4{fill:#b4c89a;}.cls-5{fill:#29371c;}</style><style
       id="style5747">.cls-1{fill:#004e59;}.cls-2{fill:#ffad5f;}.cls-3{fill:#ff6b00;}.cls-4{fill:#00abc8;}.cls-5{fill:#00758d;}.cls-6{fill:#00bed6;}.cls-7{fill:#5fd0df;}.cls-8{fill:#ff5100;}.cls-9{fill:#423f40;}.cls-10{fill:#ff9015;}.cls-11{fill:#673918;}</style></defs><g
     inkscape:label="Capa 1"
     inkscape:groupmode="layer"
     id="layer1"
     transform="translate(43.803955,-51.143179)"><g
       id="g218"
       transform="matrix(0.26458333,0,0,0.26458333,49.171937,91.474923)"><g
         id="g5881"
         transform="matrix(1.0109861,0,0,1.0109861,-541.29847,-206.28006)"
         style="stroke-width:0.989133"><path
           class="cls-9"
           d="m 527.68,421.84 c 0,49.38 -39.6,87.29 -91.95,87.29 -52.35,0 -91.93,-37.65 -91.93,-87.29 0,-49.64 39.6,-86.81 91.93,-86.81 52.33,0 91.95,37.15 91.95,86.81 z m -144.27,0 c 0,30.06 24.21,53.54 52.82,53.54 28.61,0 51.85,-23.47 51.85,-53.54 0,-30.07 -23.24,-53.06 -51.85,-53.06 -28.61,0 -52.82,22.98 -52.82,53.06 z"
           id="path5751"
           style="stroke-width:0.989133" /><path
           class="cls-9"
           d="M 624.92,507.41 H 586.29 V 453.13 L 522.95,336.24 h 38.89 l 43.76,76.77 42.79,-76.77 h 38.89 l -62.36,115.9 z"
           id="path5753"
           style="stroke-width:0.989133" /><path
           class="cls-9"
           d="m 724.37,474.16 -13.44,33.25 h -39.86 l 74.35,-171.17 h 39.86 l 73.11,171.17 h -41.33 l -13.44,-33.25 h -79.24 z m 39.86,-97.56 -27.14,66.5 h 54.04 z"
           id="path5755"
           style="stroke-width:0.989133" /><path
           class="cls-9"
           d="m 1011.18,353.13 -14.91,32.02 c -18.1,-10.75 -39.6,-17.6 -53.3,-17.6 -12.96,0 -21.76,4.64 -21.76,13.94 0,31.54 91.21,13.94 90.97,75.56 0,33.51 -29.11,51.59 -67,51.59 -28.13,0 -56.25,-10.75 -75.56,-27.14 l 15.39,-31.54 c 17.62,15.65 42.55,25.66 60.65,25.66 15.89,0 25.43,-5.85 25.43,-16.37 0,-32.29 -91.21,-13.46 -91.21,-74.11 0,-31.04 26.66,-50.61 66.28,-50.61 23.95,0 47.92,7.35 65.03,18.6 z"
           id="path5757"
           style="stroke-width:0.989133" /><path
           class="cls-9"
           d="m 311.91,445.69 c 0,41.26 -24.29,64.68 -63.79,64.68 -24.59,0 -45.06,-10.83 -60.29,-29.56 l 16.39,-26.34 c 13.46,14.63 29.56,22.53 43.6,22.53 18.43,0 29.26,-11.41 29.26,-32.48 V 329.98 h -70.81 v -31.02 h 105.64 z"
           id="path5759"
           style="stroke-width:0.989133" /><path
           class="cls-8"
           d="m 246.57,614.62 c -3,3 -6.47,5.33 -10.43,6.99 -3.95,1.66 -8.1,2.49 -12.44,2.49 -4.34,0 -8.49,-0.83 -12.44,-2.49 -3.95,-1.66 -7.43,-3.99 -10.43,-6.99 -3.09,-3.08 -5.44,-6.6 -7.06,-10.55 -1.62,-3.95 -2.43,-8.1 -2.43,-12.44 0,-4.34 0.81,-8.38 2.43,-12.33 1.61,-3.95 3.97,-7.47 7.06,-10.55 3,-3 6.47,-5.33 10.43,-6.99 3.95,-1.66 8.1,-2.49 12.44,-2.49 4.34,0 8.49,0.83 12.44,2.49 3.95,1.66 7.43,3.99 10.43,6.99 0.56,0.56 0.95,1 1.19,1.31 V 538.4 h 8.3 v 53.23 c 0,4.35 -0.81,8.49 -2.43,12.44 -1.62,3.95 -3.97,7.47 -7.06,10.55 z M 223.7,567.55 c -3.32,0 -6.44,0.64 -9.36,1.9 -2.92,1.27 -5.48,2.98 -7.65,5.15 -2.17,2.17 -3.89,4.73 -5.15,7.65 -1.27,2.92 -1.89,6.04 -1.89,9.36 0,3.32 0.63,6.46 1.89,9.42 1.27,2.97 2.98,5.53 5.15,7.71 2.17,2.17 4.73,3.9 7.65,5.15 2.92,1.27 6.05,1.9 9.36,1.9 3.31,0 6.44,-0.64 9.36,-1.9 2.92,-1.25 5.48,-2.98 7.65,-5.15 2.17,-2.17 3.89,-4.74 5.15,-7.71 1.27,-2.96 1.89,-6.1 1.89,-9.42 0,-3.32 -0.63,-6.44 -1.89,-9.36 -1.27,-2.92 -2.98,-5.48 -5.15,-7.65 -2.17,-2.17 -4.73,-3.89 -7.65,-5.15 -2.92,-1.26 -6.05,-1.9 -9.36,-1.9 z"
           id="path5761"
           style="stroke-width:0.989133" /><path
           class="cls-8"
           d="m 277.99,591.97 c 0,3.33 0.65,6.43 1.95,9.31 1.31,2.89 3.05,5.4 5.22,7.53 2.17,2.14 4.7,3.84 7.58,5.1 2.89,1.27 5.99,1.9 9.31,1.9 4.5,0 8.61,-1.13 12.33,-3.38 3.71,-2.25 6.6,-5.23 8.65,-8.95 h 9.25 c -1.67,4.19 -4.11,7.91 -7.36,11.15 -3.08,3 -6.58,5.33 -10.48,6.99 -3.91,1.66 -8.04,2.49 -12.39,2.49 -4.35,0 -8.49,-0.83 -12.44,-2.49 -3.95,-1.66 -7.43,-3.99 -10.43,-6.99 -3.09,-3.08 -5.44,-6.59 -7.06,-10.5 -1.62,-3.91 -2.43,-8.04 -2.43,-12.39 0,-4.35 0.81,-8.49 2.43,-12.44 1.61,-3.95 3.97,-7.43 7.06,-10.43 3,-3.08 6.47,-5.46 10.43,-7.11 3.95,-1.66 8.1,-2.49 12.44,-2.49 4.34,0 8.48,0.83 12.39,2.49 3.91,1.66 7.4,4.03 10.48,7.11 3.09,3 5.43,6.52 7.06,10.55 1.62,4.03 2.43,8.22 2.43,12.56 h -56.42 z m 24.06,-24.42 c -2.61,0 -5.1,0.4 -7.47,1.19 -2.36,0.8 -4.54,1.9 -6.52,3.33 -1.97,1.42 -3.71,3.11 -5.21,5.1 -1.5,1.97 -2.69,4.14 -3.56,6.52 h 45.4 c -1.74,-4.75 -4.64,-8.61 -8.7,-11.62 -4.08,-3 -8.71,-4.51 -13.93,-4.51 z"
           id="path5763"
           style="stroke-width:0.989133" /><path
           class="cls-8"
           d="m 422.37,624.09 c -4.27,-0.16 -8.2,-0.83 -11.8,-2.02 -3.6,-1.18 -6.7,-2.88 -9.31,-5.1 -2.6,-2.21 -4.64,-4.95 -6.1,-8.23 -1.46,-3.28 -2.23,-7.09 -2.31,-11.44 h 8.3 c 0.55,6.55 2.74,11.28 6.58,14.16 3.83,2.89 8.71,4.34 14.64,4.34 2.37,0 4.68,-0.3 6.93,-0.9 2.25,-0.6 4.22,-1.48 5.93,-2.67 1.7,-1.19 3.08,-2.7 4.16,-4.56 1.06,-1.86 1.6,-4.05 1.6,-6.59 0,-2.92 -0.66,-5.33 -1.96,-7.23 -1.3,-1.9 -3.02,-3.49 -5.15,-4.81 -2.14,-1.3 -4.57,-2.41 -7.29,-3.32 -2.73,-0.91 -5.5,-1.84 -8.3,-2.79 -2.81,-0.94 -5.57,-1.97 -8.3,-3.08 -2.72,-1.11 -5.15,-2.51 -7.29,-4.21 -2.13,-1.69 -3.85,-3.81 -5.15,-6.34 -1.3,-2.53 -1.96,-5.65 -1.96,-9.36 0,-3.71 0.74,-7.19 2.2,-10.19 1.47,-3 3.39,-5.56 5.81,-7.65 2.41,-2.08 5.2,-3.69 8.36,-4.79 3.16,-1.11 6.44,-1.66 9.83,-1.66 3.16,0 6.23,0.52 9.19,1.53 2.97,1.03 5.59,2.45 7.89,4.27 2.3,1.83 4.13,4.05 5.51,6.7 1.38,2.65 2.07,5.56 2.07,8.71 h -8.29 c -0.17,-2.21 -0.74,-4.13 -1.73,-5.75 -0.99,-1.62 -2.25,-2.97 -3.8,-4.03 -1.53,-1.06 -3.26,-1.86 -5.15,-2.37 -1.89,-0.52 -3.8,-0.76 -5.69,-0.76 -2.45,0 -4.76,0.37 -6.93,1.12 -2.17,0.75 -4.07,1.8 -5.69,3.14 -1.62,1.36 -2.9,3.02 -3.85,5.04 -0.95,2.02 -1.42,4.26 -1.42,6.7 0,2.69 0.64,4.91 1.89,6.64 1.27,1.74 2.92,3.21 4.98,4.45 2.05,1.22 4.39,2.27 6.99,3.14 2.61,0.87 5.3,1.74 8.07,2.61 2.77,0.87 5.47,1.86 8.12,2.96 2.64,1.11 5.04,2.53 7.17,4.27 5.46,4.44 8.18,10.13 8.18,17.07 0,3.8 -0.76,7.14 -2.31,10.03 -1.55,2.88 -3.6,5.28 -6.16,7.17 -2.58,1.89 -5.46,3.34 -8.66,4.32 -3.2,0.99 -6.46,1.48 -9.78,1.48 z"
           id="path5765"
           style="stroke-width:0.989133" /><path
           class="cls-8"
           d="m 513.52,568.74 c 3.09,3.08 5.43,6.6 7.06,10.55 1.62,3.95 2.43,8.1 2.43,12.44 v 29.64 h -8.3 v -8.89 c -1.58,2.22 -3.32,4.05 -5.21,5.51 -1.9,1.47 -3.9,2.65 -5.99,3.56 -2.09,0.91 -4.25,1.56 -6.45,1.95 -2.22,0.4 -4.36,0.59 -6.41,0.59 -4.35,0 -8.49,-0.83 -12.44,-2.49 -3.95,-1.66 -7.43,-3.99 -10.43,-6.99 -3.09,-3.08 -5.44,-6.6 -7.06,-10.55 -1.62,-3.95 -2.43,-8.07 -2.43,-12.33 0,-4.26 0.81,-8.49 2.43,-12.44 1.61,-3.95 3.97,-7.47 7.06,-10.55 3,-3 6.47,-5.33 10.43,-6.99 3.95,-1.66 8.1,-2.49 12.44,-2.49 4.34,0 8.49,0.83 12.44,2.49 3.95,1.66 7.43,3.99 10.43,6.99 z m -22.87,47.07 c 3.32,0 6.44,-0.64 9.36,-1.9 2.92,-1.25 5.48,-2.98 7.65,-5.15 2.17,-2.17 3.89,-4.73 5.15,-7.65 1.27,-2.92 1.89,-6.04 1.89,-9.36 0,-3.32 -0.63,-6.45 -1.89,-9.42 -1.27,-2.97 -2.98,-5.53 -5.15,-7.71 -2.17,-2.17 -4.73,-3.89 -7.65,-5.15 -2.92,-1.27 -6.05,-1.9 -9.36,-1.9 -3.31,0 -6.44,0.64 -9.36,1.9 -2.92,1.27 -5.48,2.98 -7.65,5.15 -2.17,2.17 -3.89,4.74 -5.15,7.71 -1.27,2.97 -1.89,6.1 -1.89,9.42 0,3.32 0.63,6.44 1.89,9.36 1.27,2.92 2.98,5.48 5.15,7.65 2.17,2.17 4.73,3.9 7.65,5.15 2.92,1.27 6.05,1.9 9.36,1.9 z"
           id="path5767"
           style="stroke-width:0.989133" /><path
           class="cls-8"
           d="m 586.19,566.72 c 2.53,2.53 4.47,5.42 5.81,8.66 1.34,3.24 2.02,6.64 2.02,10.19 v 35.8 h -8.3 v -35.8 c 0,-2.53 -0.49,-4.9 -1.48,-7.11 -1,-2.21 -2.32,-4.14 -3.98,-5.8 -1.66,-1.67 -3.6,-2.97 -5.81,-3.92 -2.21,-0.94 -4.58,-1.42 -7.11,-1.42 -2.53,0 -4.9,0.48 -7.1,1.42 -2.22,0.95 -4.16,2.25 -5.81,3.92 -1.66,1.66 -2.97,3.6 -3.91,5.8 -0.95,2.22 -1.42,4.58 -1.42,7.11 v 35.8 h -8.3 V 562.1 h 6.88 l 1.42,5.33 c 2.52,-2.77 5.33,-4.86 8.41,-6.28 3.08,-1.42 6.36,-2.13 9.83,-2.13 3.47,0 6.96,0.65 10.2,1.95 3.24,1.31 6.12,3.23 8.65,5.75 z"
           id="path5769"
           style="stroke-width:0.989133" /><path
           class="cls-8"
           d="m 699.17,604.3 c 0,-4.42 -1.39,-8.02 -4.16,-10.79 -3,-2.77 -7.19,-4.27 -12.57,-4.5 h -21.69 v 32.36 h -8.3 v -82.98 h 28.92 c 3.56,0 6.88,0.49 9.96,1.48 3.08,1 5.81,2.43 8.18,4.34 2.37,1.89 4.31,4.35 5.81,7.35 0.63,1.42 1.14,3.04 1.53,4.86 0.4,1.81 0.59,4.27 0.59,7.35 0,3.24 -0.19,5.71 -0.59,7.4 -0.39,1.7 -0.91,3.26 -1.53,4.68 -1.5,3 -3.44,5.46 -5.81,7.35 -0.39,0.32 -0.76,0.62 -1.12,0.9 -0.36,0.28 -0.74,0.53 -1.13,0.77 0.64,0.39 1.23,0.81 1.78,1.24 0.55,0.44 1.11,0.88 1.66,1.36 3.64,3.56 5.81,7.91 6.52,13.04 0.08,0.64 0.13,1.27 0.18,1.9 0.04,0.63 0.06,1.27 0.06,1.89 v 17.07 h -8.29 z m -4.86,-27.62 c 0.86,-0.78 1.66,-1.81 2.36,-3.08 0.64,-1.11 1.21,-2.44 1.73,-4.03 0.52,-1.58 0.77,-3.51 0.77,-5.8 0,-3.39 -0.41,-6.1 -1.25,-8.12 -0.83,-2.02 -2.03,-3.65 -3.61,-4.92 -3.33,-2.69 -7.63,-4.03 -12.93,-4.03 h -20.62 v 34.02 h 20.62 c 5.3,0 9.6,-1.34 12.93,-4.03 z"
           id="path5771"
           style="stroke-width:0.989133" /><path
           class="cls-8"
           d="m 749.54,624.09 c -4.35,0 -8.48,-0.83 -12.39,-2.49 -3.91,-1.66 -7.4,-3.99 -10.48,-6.99 -3.01,-3.08 -5.34,-6.6 -7,-10.55 -1.66,-3.95 -2.49,-8.07 -2.49,-12.33 0,-4.26 0.83,-8.49 2.49,-12.44 1.66,-3.95 3.99,-7.47 7,-10.55 3.08,-3 6.58,-5.33 10.48,-6.99 3.91,-1.66 8.04,-2.49 12.39,-2.49 4.35,0 8.49,0.83 12.44,2.49 3.95,1.66 7.47,3.99 10.55,6.99 3,3.08 5.33,6.6 6.99,10.55 1.67,3.95 2.5,8.1 2.5,12.44 0,4.34 -0.83,8.38 -2.5,12.33 -1.66,3.95 -3.99,7.47 -6.99,10.55 -3.08,3 -6.6,5.33 -10.55,6.99 -3.95,1.66 -8.1,2.49 -12.44,2.49 z m 0,-56.55 c -3.32,0 -6.44,0.64 -9.36,1.9 -2.92,1.27 -5.48,2.98 -7.65,5.15 -2.17,2.17 -3.89,4.74 -5.15,7.71 -1.27,2.97 -1.89,6.1 -1.89,9.42 0,3.32 0.63,6.44 1.89,9.36 1.27,2.92 2.98,5.48 5.15,7.65 2.17,2.17 4.73,3.9 7.65,5.15 2.92,1.27 6.05,1.9 9.36,1.9 3.31,0 6.44,-0.64 9.36,-1.9 2.92,-1.25 5.49,-2.98 7.71,-5.15 2.21,-2.17 3.95,-4.73 5.22,-7.65 1.25,-2.92 1.89,-6.04 1.89,-9.36 0,-3.32 -0.64,-6.45 -1.89,-9.42 -1.27,-2.97 -3.01,-5.53 -5.22,-7.71 -2.22,-2.17 -4.78,-3.89 -7.71,-5.15 -2.92,-1.27 -6.05,-1.9 -9.36,-1.9 z"
           id="path5773"
           style="stroke-width:0.989133" /><path
           class="cls-8"
           d="m 851.49,568.74 c 3.09,3.08 5.43,6.6 7.06,10.55 1.62,3.95 2.43,8.1 2.43,12.44 v 55.01 h -8.3 V 613.3 c -0.24,0.32 -0.63,0.76 -1.19,1.31 -3,3 -6.47,5.33 -10.43,6.99 -3.95,1.66 -8.1,2.49 -12.44,2.49 -4.34,0 -8.49,-0.83 -12.44,-2.49 -3.95,-1.66 -7.43,-3.99 -10.43,-6.99 -3.09,-3.08 -5.44,-6.6 -7.06,-10.55 -1.62,-3.95 -2.43,-8.07 -2.43,-12.33 0,-4.26 0.81,-8.49 2.43,-12.44 1.61,-3.95 3.97,-7.47 7.06,-10.55 3,-3 6.47,-5.33 10.43,-6.99 3.95,-1.66 8.1,-2.49 12.44,-2.49 4.34,0 8.49,0.83 12.44,2.49 3.95,1.66 7.43,3.99 10.43,6.99 z m -22.87,47.07 c 3.32,0 6.44,-0.64 9.36,-1.9 2.92,-1.25 5.48,-2.98 7.65,-5.15 2.17,-2.17 3.89,-4.73 5.15,-7.65 1.27,-2.92 1.89,-6.04 1.89,-9.36 0,-3.32 -0.63,-6.45 -1.89,-9.42 -1.27,-2.97 -2.98,-5.53 -5.15,-7.71 -2.17,-2.17 -4.73,-3.89 -7.65,-5.15 -2.92,-1.27 -6.05,-1.9 -9.36,-1.9 -3.31,0 -6.44,0.64 -9.36,1.9 -2.92,1.27 -5.48,2.98 -7.65,5.15 -2.17,2.17 -3.89,4.74 -5.15,7.71 -1.27,2.97 -1.89,6.1 -1.89,9.42 0,3.32 0.63,6.44 1.89,9.36 1.27,2.92 2.98,5.48 5.15,7.65 2.17,2.17 4.73,3.9 7.65,5.15 2.92,1.27 6.05,1.9 9.36,1.9 z"
           id="path5775"
           style="stroke-width:0.989133" /><path
           class="cls-8"
           d="m 883.01,616.4 c -2.52,-2.53 -4.46,-5.42 -5.8,-8.66 -1.34,-3.24 -2.02,-6.64 -2.02,-10.19 v -35.44 h 8.3 v 35.44 c 0,2.53 0.49,4.9 1.48,7.11 0.99,2.21 2.31,4.14 3.98,5.8 1.66,1.67 3.6,2.97 5.8,3.92 2.22,0.94 4.58,1.42 7.11,1.42 2.53,0 4.9,-0.48 7.11,-1.42 2.21,-0.95 4.14,-2.25 5.81,-3.92 1.66,-1.66 2.98,-3.6 3.97,-5.8 0.99,-2.22 1.48,-4.58 1.48,-7.11 v -35.44 h 8.3 v 35.44 c 0,3.55 -0.67,6.96 -2.02,10.19 -1.34,3.24 -3.28,6.13 -5.8,8.66 -2.53,2.52 -5.42,4.44 -8.66,5.75 -3.24,1.3 -6.63,1.95 -10.19,1.95 -3.56,0 -6.96,-0.65 -10.19,-1.95 -3.24,-1.31 -6.13,-3.23 -8.66,-5.75 z"
           id="path5777"
           style="stroke-width:0.989133" /><path
           class="cls-8"
           d="m 952.24,591.97 c 0,3.33 0.65,6.43 1.95,9.31 1.31,2.89 3.05,5.4 5.22,7.53 2.17,2.14 4.7,3.84 7.58,5.1 2.89,1.27 5.99,1.9 9.31,1.9 4.5,0 8.61,-1.13 12.33,-3.38 3.71,-2.25 6.6,-5.23 8.65,-8.95 h 9.25 c -1.67,4.19 -4.11,7.91 -7.36,11.15 -3.08,3 -6.58,5.33 -10.48,6.99 -3.91,1.66 -8.04,2.49 -12.39,2.49 -4.35,0 -8.49,-0.83 -12.44,-2.49 -3.95,-1.66 -7.43,-3.99 -10.43,-6.99 -3.09,-3.08 -5.44,-6.59 -7.06,-10.5 -1.62,-3.91 -2.43,-8.04 -2.43,-12.39 0,-4.35 0.81,-8.49 2.43,-12.44 1.61,-3.95 3.97,-7.43 7.06,-10.43 3,-3.08 6.47,-5.46 10.43,-7.11 3.95,-1.66 8.1,-2.49 12.44,-2.49 4.34,0 8.48,0.83 12.39,2.49 3.91,1.66 7.4,4.03 10.48,7.11 3.09,3 5.43,6.52 7.06,10.55 1.62,4.03 2.43,8.22 2.43,12.56 h -56.42 z m 24.06,-24.42 c -2.61,0 -5.1,0.4 -7.47,1.19 -2.36,0.8 -4.54,1.9 -6.52,3.33 -1.97,1.42 -3.71,3.11 -5.21,5.1 -1.5,1.97 -2.69,4.14 -3.56,6.52 h 45.4 c -1.74,-4.75 -4.64,-8.61 -8.7,-11.62 -4.08,-3 -8.71,-4.51 -13.93,-4.51 z"
           id="path5779"
           style="stroke-width:0.989133" /><polygon
           class="cls-10"
           points="579.02,149.05 570.46,128.13 579.21,107.29 600.14,98.73 620.98,107.48 629.54,128.41 620.79,149.25 599.86,157.8 "
           id="polygon5781"
           style="stroke-width:0.989133" /><polygon
           class="cls-11"
           points="600,203.28 587.55,173.25 579.02,149.05 555.01,140.71 524.99,128.27 "
           id="polygon5783"
           style="stroke-width:0.989133" /><polygon
           class="cls-3"
           points="675.01,128.16 644.99,115.72 620.98,107.37 629.54,128.15 629.55,128.17 620.79,149.16 644.99,140.62 644.93,140.56 644.99,140.61 "
           id="polygon5785"
           style="stroke-width:0.989133" /><polygon
           class="cls-3"
           points="600.02,157.82 600.01,157.8 579.02,149.05 587.55,173.25 600,203.28 612.44,173.26 612.45,173.27 620.79,149.27 "
           id="polygon5787"
           style="stroke-width:0.989133" /><polygon
           class="cls-10"
           points="675.01,128.27 600,53.26 612.45,83.28 620.98,107.48 644.99,115.82 "
           id="polygon5789"
           style="stroke-width:0.989133" /><polygon
           class="cls-10"
           points="620.79,149.27 612.45,173.25 600,203.28 675.01,128.27 644.99,140.71 644.96,140.74 "
           id="polygon5791"
           style="stroke-width:0.989133" /><polygon
           class="cls-3"
           points="555.01,140.71 579.02,149.05 570.46,128.28 579.21,107.29 555.01,115.82 524.99,128.27 "
           id="polygon5793"
           style="stroke-width:0.989133" /><polygon
           class="cls-2"
           points="579.21,107.29 599.99,98.73 620.98,107.48 612.45,83.28 600,53.26 587.55,83.28 "
           id="polygon5795"
           style="stroke-width:0.989133" /><polygon
           class="cls-8"
           points="600,53.26 524.99,128.27 555.01,115.82 579.21,107.29 587.55,83.28 "
           id="polygon5797"
           style="stroke-width:0.989133" /><polygon
           class="cls-6"
           points="673.87,226.5 668.75,213.99 673.98,201.52 686.5,196.4 698.97,201.64 704.08,214.15 698.85,226.62 686.33,231.74 "
           id="polygon5799"
           style="stroke-width:0.989133" /><polygon
           class="cls-1"
           points="686.42,258.93 678.97,240.98 673.87,226.5 659.51,221.51 641.55,214.07 "
           id="polygon5801"
           style="stroke-width:0.989133" /><polygon
           class="cls-4"
           points="731.28,214.01 713.32,206.56 698.97,201.57 704.08,214 704.09,214.01 698.85,226.57 713.32,221.46 713.29,221.42 713.32,221.45 "
           id="polygon5803"
           style="stroke-width:0.989133" /><polygon
           class="cls-4"
           points="686.43,231.74 686.42,231.73 673.87,226.5 678.97,240.98 686.42,258.93 693.86,240.98 693.86,240.99 698.85,226.63 "
           id="polygon5805"
           style="stroke-width:0.989133" /><polygon
           class="cls-6"
           points="731.28,214.07 686.42,169.21 693.86,187.16 698.97,201.64 713.32,206.63 "
           id="polygon5807"
           style="stroke-width:0.989133" /><polygon
           class="cls-6"
           points="698.85,226.63 693.87,240.97 693.86,240.98 686.42,258.93 731.28,214.07 713.32,221.51 713.31,221.53 "
           id="polygon5809"
           style="stroke-width:0.989133" /><polygon
           class="cls-4"
           points="659.51,221.51 673.87,226.5 668.75,214.07 673.98,201.52 659.51,206.63 641.55,214.07 "
           id="polygon5811"
           style="stroke-width:0.989133" /><polygon
           class="cls-7"
           points="673.98,201.52 686.41,196.4 698.97,201.64 693.86,187.16 686.42,169.21 678.97,187.16 "
           id="polygon5813"
           style="stroke-width:0.989133" /><polygon
           class="cls-5"
           points="686.42,169.21 641.55,214.07 659.51,206.63 673.98,201.52 678.97,187.16 "
           id="polygon5815"
           style="stroke-width:0.989133" /><polygon
           class="cls-6"
           points="501.03,226.5 495.92,213.99 501.15,201.52 513.67,196.4 526.13,201.64 531.25,214.15 526.02,226.62 513.5,231.74 "
           id="polygon5817"
           style="stroke-width:0.989133" /><polygon
           class="cls-1"
           points="513.58,258.93 506.14,240.98 501.03,226.5 486.68,221.51 468.72,214.07 "
           id="polygon5819"
           style="stroke-width:0.989133" /><polygon
           class="cls-4"
           points="558.45,214.01 540.49,206.56 526.13,201.57 531.25,214 531.26,214.01 526.02,226.57 540.49,221.46 540.46,221.42 540.49,221.45 "
           id="polygon5821"
           style="stroke-width:0.989133" /><polygon
           class="cls-4"
           points="513.59,231.74 513.59,231.73 501.03,226.5 506.14,240.98 513.58,258.93 521.03,240.98 521.03,240.99 526.02,226.63 "
           id="polygon5823"
           style="stroke-width:0.989133" /><polygon
           class="cls-6"
           points="558.45,214.07 513.58,169.21 521.03,187.16 526.13,201.64 540.49,206.63 "
           id="polygon5825"
           style="stroke-width:0.989133" /><polygon
           class="cls-6"
           points="526.02,226.63 521.03,240.97 521.03,240.98 513.58,258.93 558.45,214.07 540.49,221.51 540.48,221.53 "
           id="polygon5827"
           style="stroke-width:0.989133" /><polygon
           class="cls-4"
           points="486.68,221.51 501.03,226.5 495.92,214.07 501.15,201.52 486.68,206.63 468.72,214.07 "
           id="polygon5829"
           style="stroke-width:0.989133" /><polygon
           class="cls-7"
           points="501.15,201.52 513.58,196.4 526.13,201.64 521.03,187.16 513.58,169.21 506.14,187.16 "
           id="polygon5831"
           style="stroke-width:0.989133" /><polygon
           class="cls-5"
           points="513.58,169.21 468.72,214.07 486.68,206.63 501.15,201.52 506.14,187.16 "
           id="polygon5833"
           style="stroke-width:0.989133" /></g></g></g></svg>
