<?xml version="1.0" encoding="UTF-8" standalone="no"?>
<!-- Created with Inkscape (http://www.inkscape.org/) -->

<svg
   width="358.46286mm"
   height="158.75mm"
   viewBox="0 0 358.46286 158.75"
   version="1.1"
   id="svg5"
   xml:space="preserve"
   inkscape:version="1.2.1 (9c6d41e410, 2022-07-14)"
   sodipodi:docname="terracota.svg"
   xmlns:inkscape="http://www.inkscape.org/namespaces/inkscape"
   xmlns:sodipodi="http://sodipodi.sourceforge.net/DTD/sodipodi-0.dtd"
   xmlns="http://www.w3.org/2000/svg"
   xmlns:svg="http://www.w3.org/2000/svg"><sodipodi:namedview
     id="namedview7"
     pagecolor="#ffffff"
     bordercolor="#000000"
     borderopacity="0.25"
     inkscape:showpageshadow="2"
     inkscape:pageopacity="0.0"
     inkscape:pagecheckerboard="0"
     inkscape:deskcolor="#d1d1d1"
     inkscape:document-units="mm"
     showgrid="false"
     inkscape:zoom="0.38707561"
     inkscape:cx="390.10466"
     inkscape:cy="213.13665"
     inkscape:window-width="1920"
     inkscape:window-height="1001"
     inkscape:window-x="2391"
     inkscape:window-y="-9"
     inkscape:window-maximized="1"
     inkscape:current-layer="layer1" /><defs
     id="defs2"><style
       id="style132">.cls-1{fill:#7b6756;}.cls-2{fill:#993921;}.cls-3{clip-path:url(#clippath);}.cls-4{fill:#d35842;}.cls-5{fill:none;}.cls-6{fill:#d6a64b;}</style><clipPath
       id="clippath"><path
         class="cls-5"
         d="m 168.88,13.5 c -3.45,3.65 -12.3,13.55 -14.56,23.12 -3.21,13.62 3.03,29.24 3.03,29.24 0,0 9.28,-5.13 15.09,-18.03 4.36,-9.68 1.16,-25.89 1.49,-32.22 0.23,-4.34 0.79,-5.46 0.13,-5.97 -0.13,-0.1 -0.28,-0.15 -0.44,-0.15 -0.97,0 -2.53,1.65 -4.74,4"
         id="path134" /></clipPath></defs><g
     inkscape:label="Capa 1"
     inkscape:groupmode="layer"
     id="layer1"
     transform="translate(-38.362923,-116.94279)"><g
       id="g199"
       transform="matrix(1.3120415,0,0,1.3120415,20.781567,104.47137)"
       style="stroke-width:0.201658"><path
         class="cls-4"
         d="m 157.36,65.86 c 0,0 2.12,-12.95 9.32,-21.5 7.07,-8.39 16.66,-10.07 19.82,-11.04 2.03,-0.62 2.91,-1 3.76,-1.27 0.73,-0.23 1.31,0.33 0.81,1.3 -2.19,4.28 -5.15,17.83 -11.52,23.81 -7.85,7.37 -22.2,8.7 -22.2,8.7"
         id="path139"
         style="stroke-width:0.201658" /><path
         class="cls-6"
         d="m 157.36,65.86 c 0,0 -6.25,-15.62 -3.03,-29.24 2.26,-9.57 11.11,-19.47 14.56,-23.12 2.59,-2.74 4.28,-4.53 5.18,-3.85 0.67,0.5 0.1,1.63 -0.13,5.97 -0.34,6.33 2.87,22.54 -1.49,32.22 -5.81,12.9 -15.09,18.03 -15.09,18.03"
         id="path141"
         style="stroke-width:0.201658" /><g
         class="cls-3"
         clip-path="url(#clippath)"
         id="g145"
         style="stroke-width:0.201658"><path
           class="cls-2"
           d="m 157.36,65.86 c 0,0 2.12,-12.95 9.32,-21.5 7.07,-8.39 16.66,-10.07 19.82,-11.04 2.03,-0.62 2.91,-1 3.76,-1.27 0.73,-0.23 1.31,0.33 0.81,1.3 -2.19,4.28 -5.15,17.83 -11.52,23.81 -7.85,7.37 -22.2,8.7 -22.2,8.7"
           id="path143"
           style="stroke-width:0.201658" /></g><path
         class="cls-1"
         d="m 234.87,124.96 c -1.56,-0.4 -1.94,-0.59 -1.94,-1.18 v -0.02 c 0,-0.44 0.4,-0.79 1.16,-0.79 0.76,0 1.54,0.33 2.34,0.89 l 1.03,-1.49 c -0.91,-0.73 -2.03,-1.14 -3.34,-1.14 -1.84,0 -3.15,1.08 -3.15,2.71 v 0.03 c 0,1.79 1.17,2.29 2.98,2.75 1.5,0.39 1.81,0.64 1.81,1.14 v 0.02 c 0,0.53 -0.49,0.85 -1.3,0.85 -1.03,0 -1.88,-0.42 -2.69,-1.09 l -1.17,1.4 c 1.08,0.96 2.45,1.44 3.82,1.44 1.94,0 3.3,-1 3.3,-2.79 v -0.02 c 0,-1.57 -1.03,-2.22 -2.85,-2.7 z"
         id="path147"
         style="stroke-width:0.201658" /><polygon
         class="cls-1"
         points="192.45,126.7 196.69,126.7 196.69,124.94 192.45,124.94 192.45,123.11 197.27,123.11 197.27,121.35 190.49,121.35 190.49,130.35 197.34,130.35 197.34,128.59 192.45,128.59 "
         id="polygon149"
         style="stroke-width:0.201658" /><polygon
         class="cls-1"
         points="154.07,121.35 151.71,125.16 149.34,121.35 147.21,121.35 147.21,130.35 149.15,130.35 149.15,124.51 151.66,128.32 151.71,128.32 154.24,124.48 154.24,130.35 156.21,130.35 156.21,121.35 "
         id="polygon151"
         style="stroke-width:0.201658" /><path
         class="cls-1"
         d="m 108.56,121.2 c -2.78,0 -4.79,2.09 -4.79,4.65 v 0.02 c 0,2.56 1.99,4.63 4.77,4.63 2.78,0 4.79,-2.09 4.79,-4.65 v -0.03 c 0,-2.56 -1.99,-4.63 -4.77,-4.63 z m 2.7,4.68 c 0,1.54 -1.11,2.8 -2.7,2.8 -1.59,0 -2.73,-1.29 -2.73,-2.83 v -0.03 c 0,-1.54 1.11,-2.8 2.7,-2.8 1.59,0 2.73,1.29 2.73,2.83 v 0.02 z"
         id="path153"
         style="stroke-width:0.201658" /><polygon
         class="cls-1"
         points="67.9,124.91 64.25,124.91 64.25,121.35 62.28,121.35 62.28,130.35 64.25,130.35 64.25,126.74 67.9,126.74 67.9,130.35 69.88,130.35 69.88,121.35 67.9,121.35 "
         id="polygon155"
         style="stroke-width:0.201658" /><path
         class="cls-1"
         d="m 86.74,78.72 -0.36,-4.58 h -6.69 v 30.57 h 7.57 V 84.14 c 2.51,-3.66 5.57,-4.69 8.12,-4.69 h 1.45 v -6.09 h -0.34 c -4,0.06 -7.28,2.16 -9.76,5.36 z"
         id="path157"
         style="stroke-width:0.201658" /><path
         class="cls-1"
         d="m 180.81,99.42 c -5.6,0 -9.43,-3.76 -9.43,-9.99 0,-6.23 3.7,-9.99 9.43,-9.99 2.49,0 4.57,0.71 5.74,1.98 l 4.23,-4.67 c -2.31,-2.01 -5.95,-3.35 -10.49,-3.35 -10.67,0 -16.48,7.3 -16.48,16.03 0,8.73 5.95,16.02 16.48,16.02 4.16,0 8.04,-1.25 10.63,-3.4 l -4.22,-4.67 c -1.44,1.4 -3.75,2.05 -5.88,2.05 z"
         id="path159"
         style="stroke-width:0.201658" /><path
         class="cls-1"
         d="M 244.18,92.14 V 79.8 h 7.4 v -5.66 h -7.4 v -4.69 c -0.07,-1.99 -1.7,-3.59 -3.71,-3.59 h -3.86 v 8.28 h -5.06 v 5.66 h 5.06 v 12.34 c 0,4.75 1.67,8.04 4.45,10.11 2.74,2.07 6.56,2.95 10.97,2.88 v -5.71 c -2.45,-0.14 -4.45,-0.75 -5.82,-1.98 -1.3,-1.17 -2.02,-2.9 -2.02,-5.3 z"
         id="path161"
         style="stroke-width:0.201658" /><path
         class="cls-1"
         d="M 26.03,92.14 V 79.8 h 7.4 v -5.66 h -7.4 v -4.69 c -0.07,-1.99 -1.7,-3.59 -3.71,-3.59 h -3.86 v 8.28 H 13.4 v 5.66 h 5.06 v 12.34 c 0,4.75 1.67,8.04 4.45,10.11 2.74,2.07 6.56,2.95 10.97,2.88 v -5.71 c -2.45,-0.14 -4.45,-0.75 -5.82,-1.98 -1.3,-1.17 -2.02,-2.9 -2.02,-5.3 z"
         id="path163"
         style="stroke-width:0.201658" /><path
         class="cls-1"
         d="m 111.26,78.72 -0.36,-4.58 h -6.69 v 30.57 h 7.57 V 84.14 c 2.51,-3.66 5.57,-4.69 8.12,-4.69 h 1.45 v -6.09 h -0.34 c -4,0.06 -7.28,2.16 -9.76,5.36 z"
         id="path165"
         style="stroke-width:0.201658" /><path
         class="cls-1"
         d="m 142.02,73.4 c -4.5,0 -9.24,1.31 -13,3.36 l 1.81,4.56 c 2.44,-1.34 6.29,-2.57 9.78,-2.57 4.13,0 8.04,1.92 8.13,6.13 v 1.86 c -2.46,-1.22 -5.6,-1.91 -8.68,-1.91 -6.62,0 -13.1,3.14 -13.1,10.33 0,6.71 5.76,10.36 11.72,10.36 4.02,0 7.86,-1.54 10.63,-4.78 l 0.08,1.02 c 0.22,1.63 1.65,2.92 3.3,2.94 h 3.63 V 85.04 c 0,-8.02 -6.92,-11.66 -14.3,-11.65 z m 6.74,22.94 c -2.16,2.58 -5.02,3.52 -7.98,3.52 -3.58,0 -6.74,-1.75 -6.74,-5.14 0,-3.65 3.49,-5.19 7.39,-5.19 2.66,0 5.39,0.69 7.33,1.9 v 4.92 z"
         id="path167"
         style="stroke-width:0.201658" /><path
         class="cls-1"
         d="m 272.31,73.4 c -4.5,0 -9.24,1.31 -13,3.36 l 1.81,4.56 c 2.44,-1.34 6.29,-2.57 9.78,-2.57 4.13,0 8.04,1.92 8.13,6.13 v 1.86 c -2.46,-1.22 -5.6,-1.91 -8.68,-1.91 -6.62,0 -13.1,3.14 -13.1,10.33 0,6.71 5.76,10.36 11.72,10.36 4.02,0 7.86,-1.54 10.63,-4.78 l 0.08,1.02 c 0.22,1.63 1.65,2.92 3.3,2.94 h 3.63 V 85.04 c 0,-8.02 -6.92,-11.66 -14.3,-11.65 z m 6.74,22.94 c -2.16,2.58 -5.02,3.52 -7.98,3.52 -3.58,0 -6.74,-1.75 -6.74,-5.14 0,-3.65 3.49,-5.19 7.39,-5.19 2.66,0 5.39,0.69 7.33,1.9 v 4.92 z"
         id="path169"
         style="stroke-width:0.201658" /><path
         class="cls-1"
         d="m 210.81,73.39 c -10.97,0 -16.89,7.21 -16.89,16.03 0,8.82 5.92,16.02 16.89,16.02 10.97,0 16.89,-7.04 16.89,-16.02 0,-8.98 -6.1,-16.03 -16.89,-16.03 z m 0,26.02 c -5.69,0 -9.31,-3.8 -9.31,-9.99 0,-6.19 3.63,-9.99 9.31,-9.99 5.68,0 9.31,3.6 9.31,9.99 0,6.39 -3.51,9.99 -9.31,9.99 z"
         id="path171"
         style="stroke-width:0.201658" /><path
         class="cls-1"
         d="m 56.15,73.37 c -10.61,0 -16.2,7.23 -16.2,16.01 0,8.78 5.78,16 16.39,16 5.41,0 9.8,-1.61 12.9,-4.41 l -3.21,-3.78 c -2.97,1.76 -6.52,2.67 -9.69,2.49 -4.83,-0.15 -8.13,-3 -8.87,-7.77 h 23.85 c 0.22,-1.2 0.31,-2.5 0.31,-3.56 0,-9 -5.37,-14.98 -15.47,-14.98 z m 8.46,14.22 H 47.5 l 0.02,-0.42 c 0.32,-4.57 3.27,-8.1 8.84,-8.1 4.84,0 7.84,1.93 8.22,6.45 0.04,0.33 0.07,0.74 0.07,1.17 0,0.29 -0.01,0.59 -0.03,0.89 z"
         id="path173"
         style="stroke-width:0.201658" /></g></g></svg>
