<?xml version="1.0" encoding="UTF-8" standalone="no"?>
<!-- Created with Inkscape (http://www.inkscape.org/) -->

<svg
   width="236.57423mm"
   height="158.75mm"
   viewBox="0 0 236.57424 158.75"
   version="1.1"
   id="svg5"
   xml:space="preserve"
   inkscape:version="1.2.1 (9c6d41e410, 2022-07-14)"
   sodipodi:docname="valterra.svg"
   xmlns:inkscape="http://www.inkscape.org/namespaces/inkscape"
   xmlns:sodipodi="http://sodipodi.sourceforge.net/DTD/sodipodi-0.dtd"
   xmlns="http://www.w3.org/2000/svg"
   xmlns:svg="http://www.w3.org/2000/svg"><sodipodi:namedview
     id="namedview7"
     pagecolor="#ffffff"
     bordercolor="#000000"
     borderopacity="0.25"
     inkscape:showpageshadow="2"
     inkscape:pageopacity="0.0"
     inkscape:pagecheckerboard="0"
     inkscape:deskcolor="#d1d1d1"
     inkscape:document-units="mm"
     showgrid="false"
     inkscape:zoom="0.77415123"
     inkscape:cx="528.32055"
     inkscape:cy="371.37447"
     inkscape:window-width="1920"
     inkscape:window-height="1001"
     inkscape:window-x="2391"
     inkscape:window-y="-9"
     inkscape:window-maximized="1"
     inkscape:current-layer="layer1" /><defs
     id="defs2"><style
       id="style132">.cls-1{fill:#575756;}.cls-2{fill:#c97d31;}.cls-3{fill:#238dc1;}.cls-4{fill:#6bcbb8;}.cls-5{fill:#009877;}</style></defs><g
     inkscape:label="Capa 1"
     inkscape:groupmode="layer"
     id="layer1"
     transform="translate(94.24813,-58.629793)"><g
       id="g251"
       transform="matrix(0.24832236,0,0,0.24832236,-124.95319,51.090726)"
       style="stroke-width:1.06548"><path
         class="cls-1"
         d="m 254.37,445.06 c -0.3,0.73 -6.77,14.67 -19.39,41.81 -12.61,27.14 -24.67,53.3 -36.15,78.49 h -12.2 c -12.65,-28.24 -24.75,-54.92 -36.3,-80.05 -11.54,-25.12 -17.6,-38.3 -18.15,-39.52 l 14.29,-7.1 c 0.42,1.22 5.94,13.95 16.54,38.18 10.61,24.23 20.83,47.04 30.67,68.43 h 0.18 c 10,-21.94 20.4,-45.04 31.17,-69.3 10.77,-24.26 16.34,-36.75 16.71,-37.49 l 12.62,6.55 z"
         id="path136"
         style="stroke-width:1.06548" /><path
         class="cls-1"
         d="M 379.3,558.62 365.04,566 c -0.25,-0.67 -2.21,-5.23 -5.87,-13.66 -3.67,-8.44 -8.51,-19.28 -14.51,-32.54 h -54.27 c -6.45,14.24 -11.42,25.27 -14.92,33.09 -3.5,7.83 -5.43,12.19 -5.8,13.11 l -12.27,-6.65 c 1.59,-3.18 8.14,-17.18 19.66,-42.01 11.52,-24.83 23.48,-50.93 35.88,-78.29 h 11.91 c 12.22,27.37 24.23,53.88 36.03,79.53 11.79,25.65 17.93,39 18.42,40.04 z m -39.83,-50.55 c -3.24,-7.46 -6.65,-15.26 -10.25,-23.39 -3.6,-8.13 -7.38,-16.63 -11.34,-25.51 l -0.37,0.08 c -3.07,6.71 -6.77,14.97 -11.12,24.77 -4.34,9.8 -7.92,17.81 -10.76,24.04 l -0.04,0.09 h 43.91 l -0.04,-0.09 z"
         id="path138"
         style="stroke-width:1.06548" /><path
         class="cls-1"
         d="m 476.93,563.35 c -0.73,0 -4.6,-0.03 -11.6,-0.09 -7,-0.06 -15.93,-0.1 -26.81,-0.1 -7.16,0 -13.94,0.04 -20.39,0.1 -6.45,0.06 -11.91,0.09 -16.36,0.09 0.12,-10.51 0.23,-21.16 0.32,-31.95 0.09,-10.78 0.14,-21.37 0.14,-31.76 0,-17.36 -0.06,-30.59 -0.18,-39.69 -0.12,-9.1 -0.21,-15.49 -0.28,-19.16 h 15.13 c -0.13,7.88 -0.22,16.98 -0.27,27.29 -0.07,10.32 -0.09,18.77 -0.09,25.37 0,16.06 0.02,29.46 0.09,40.2 0.05,10.75 0.09,16.43 0.09,17.04 2.5,0 5.53,0.01 9.07,0.04 3.54,0.04 6.75,0.04 9.63,0.04 10.93,0 20.45,-0.04 28.55,-0.14 8.1,-0.09 12.42,-0.14 12.97,-0.14 v 12.83 z"
         id="path140"
         style="stroke-width:1.06548" /><path
         class="cls-1"
         d="m 587.65,453.72 c -0.98,0 -5.08,-0.03 -12.29,-0.09 -7.21,-0.06 -18.12,-0.1 -32.72,-0.1 -0.13,12.54 -0.22,22.05 -0.28,28.53 -0.06,6.48 -0.09,15.32 -0.09,26.51 0,11.19 0.04,21.7 0.13,32.8 0.1,11.1 0.17,18.48 0.24,22.15 h -15.12 c 0.12,-3.67 0.23,-11.16 0.32,-22.47 0.09,-11.31 0.14,-22.38 0.14,-33.21 v -25.37 c 0,-6.27 -0.09,-15.91 -0.28,-28.95 -13.02,-0.05 -23.58,-0.04 -31.67,0.05 -8.1,0.09 -12.55,0.14 -13.34,0.14 v -12.65 c 6.3,0 13.95,0.03 22.96,0.09 9.01,0.06 18.62,0.09 28.82,0.09 14.79,0 27.14,-0.03 37.08,-0.09 9.94,-0.06 15.29,-0.09 16.09,-0.09 v 12.65 z"
         id="path142"
         style="stroke-width:1.06548" /><path
         class="cls-1"
         d="m 687.93,563.35 c -0.56,0 -4.61,-0.03 -12.19,-0.09 -7.58,-0.06 -16.96,-0.1 -28.14,-0.1 -7.76,0 -14.86,0.04 -21.31,0.1 -6.45,0.06 -11.91,0.09 -16.36,0.09 0.12,-3.55 0.22,-11.21 0.31,-23.01 0.09,-11.79 0.14,-23.98 0.14,-36.57 0,-6.91 -0.03,-16.04 -0.08,-27.41 -0.07,-11.37 -0.19,-23.13 -0.37,-35.29 4.33,0 9.76,0.03 16.27,0.09 6.51,0.06 13.21,0.09 20.12,0.09 11.67,0 21.17,-0.03 28.5,-0.09 7.34,-0.06 11.31,-0.09 11.92,-0.09 v 12.74 c -0.61,0 -4.44,-0.04 -11.5,-0.13 -7.06,-0.09 -15.84,-0.14 -26.35,-0.14 -4.58,0 -9.08,0.02 -13.48,0.05 -4.39,0.03 -7.88,0.05 -10.45,0.05 0,6.91 -0.06,13.79 -0.18,20.67 -0.13,6.87 -0.19,13.37 -0.19,19.48 2.74,0 6,0.01 9.76,0.04 3.76,0.03 7.11,0.05 10.04,0.05 10.76,0 20.36,-0.05 28.83,-0.14 8.46,-0.1 12.97,-0.14 13.52,-0.14 v 12.65 c -0.49,0 -5.53,-0.04 -15.12,-0.14 -9.59,-0.09 -18.37,-0.14 -26.3,-0.14 -2.94,0 -6.44,0.02 -10.5,0.05 -4.06,0.03 -7.48,0.04 -10.22,0.04 0,11.55 0.03,20.72 0.09,27.5 0.06,6.78 0.13,12.47 0.19,17.05 3.59,0.06 7.97,0.11 13.11,0.14 5.12,0.04 10.65,0.04 16.59,0.04 9.1,0 16.75,-0.03 22.96,-0.09 6.2,-0.06 9.67,-0.09 10.41,-0.09 v 12.74 z"
         id="path144"
         style="stroke-width:1.06548" /><path
         class="cls-1"
         d="m 817.96,556.19 -11.47,9.44 c -1.34,-1.41 -6.11,-6.71 -14.29,-15.92 -8.18,-9.2 -20.79,-23.56 -37.82,-43.07 l 0.09,-0.83 c 2.32,-0.61 5.4,-1.94 9.26,-3.99 3.85,-2.05 7.09,-4.27 9.72,-6.65 2.26,-2.08 4.24,-4.65 5.92,-7.71 1.68,-3.06 2.52,-7.16 2.52,-12.29 0,-4.71 -1.24,-8.76 -3.71,-12.16 -2.47,-3.39 -5.88,-5.89 -10.22,-7.47 -3.54,-1.35 -7.28,-2.16 -11.18,-2.43 -3.91,-0.28 -7.51,-0.41 -10.82,-0.41 -2.2,0 -3.88,0.02 -5.04,0.05 -1.16,0.03 -2.01,0.04 -2.56,0.04 -0.13,11.62 -0.19,21.86 -0.23,30.73 -0.03,8.87 -0.04,15.14 -0.04,18.81 0,8.37 0.04,19.75 0.13,34.13 0.09,14.37 0.17,23.39 0.23,27.06 h -15.13 c 0.06,-3.67 0.15,-10.77 0.27,-21.31 0.12,-10.54 0.18,-23.66 0.18,-39.37 v -16.96 c 0,-8.25 -0.15,-23.28 -0.45,-45.1 0.61,0 3.66,-0.06 9.15,-0.18 5.5,-0.12 10.56,-0.18 15.2,-0.18 5.31,0 10.47,0.31 15.47,0.92 5.01,0.61 9.9,1.92 14.65,3.93 6.04,2.57 10.84,6.34 14.37,11.32 3.54,4.97 5.31,10.82 5.31,17.54 0,8.67 -2.66,15.89 -8,21.66 -5.34,5.77 -10.39,10.06 -15.14,12.87 v 0.46 c 8.38,9.79 17.56,19.88 27.55,30.28 9.99,10.4 15.36,15.99 16.1,16.79 z"
         id="path146"
         style="stroke-width:1.06548" /><path
         class="cls-1"
         d="m 936.94,556.19 -11.48,9.44 c -1.34,-1.41 -6.1,-6.71 -14.29,-15.92 -8.18,-9.2 -20.8,-23.56 -37.83,-43.07 l 0.09,-0.83 c 2.32,-0.61 5.41,-1.94 9.26,-3.99 3.85,-2.05 7.09,-4.27 9.72,-6.65 2.26,-2.08 4.23,-4.65 5.91,-7.71 1.68,-3.06 2.53,-7.16 2.53,-12.29 0,-4.71 -1.24,-8.76 -3.72,-12.16 -2.47,-3.39 -5.88,-5.89 -10.22,-7.47 -3.55,-1.35 -7.28,-2.16 -11.18,-2.43 -3.91,-0.28 -7.52,-0.41 -10.82,-0.41 -2.2,0 -3.88,0.02 -5.04,0.05 -1.16,0.03 -2.01,0.04 -2.56,0.04 -0.12,11.62 -0.2,21.86 -0.23,30.73 -0.03,8.87 -0.04,15.14 -0.04,18.81 0,8.37 0.04,19.75 0.14,34.13 0.09,14.37 0.17,23.39 0.23,27.06 h -15.12 c 0.06,-3.67 0.15,-10.77 0.27,-21.31 0.12,-10.54 0.18,-23.66 0.18,-39.37 v -16.96 c 0,-8.25 -0.15,-23.28 -0.45,-45.1 0.6,0 3.66,-0.06 9.15,-0.18 5.49,-0.12 10.56,-0.18 15.2,-0.18 5.31,0 10.47,0.31 15.47,0.92 5,0.61 9.88,1.92 14.65,3.93 6.04,2.57 10.83,6.34 14.37,11.32 3.54,4.97 5.32,10.82 5.32,17.54 0,8.67 -2.68,15.89 -8.01,21.66 -5.33,5.77 -10.38,10.06 -15.14,12.87 v 0.46 c 8.37,9.79 17.56,19.88 27.55,30.28 10,10.4 15.36,15.99 16.1,16.79 z"
         id="path148"
         style="stroke-width:1.06548" /><path
         class="cls-1"
         d="m 1063.27,558.62 -14.26,7.38 c -0.25,-0.67 -2.21,-5.23 -5.87,-13.66 -3.66,-8.44 -8.51,-19.28 -14.52,-32.54 h -54.26 c -6.45,14.24 -11.42,25.27 -14.92,33.09 -3.5,7.83 -5.43,12.19 -5.8,13.11 l -12.28,-6.65 c 1.58,-3.18 8.14,-17.18 19.66,-42.01 11.52,-24.83 23.48,-50.93 35.89,-78.29 h 11.91 c 12.22,27.37 24.23,53.88 36.03,79.53 11.79,25.65 17.93,39 18.42,40.04 z m -39.82,-50.55 c -3.24,-7.46 -6.65,-15.26 -10.26,-23.39 -3.59,-8.13 -7.37,-16.63 -11.33,-25.51 l -0.36,0.08 c -3.08,6.71 -6.78,14.97 -11.12,24.77 -4.34,9.8 -7.93,17.81 -10.76,24.04 l -0.05,0.09 h 43.92 l -0.04,-0.09 z"
         id="path150"
         style="stroke-width:1.06548" /><path
         class="cls-5"
         d="m 167.39,668.66 h -4.38 l -5.42,-14.48 c -0.54,-1.39 -1.13,-2.7 -1.76,-3.93 -0.65,-1.23 -1.41,-2.3 -2.27,-3.21 -0.87,-0.91 -1.85,-1.63 -2.96,-2.16 -1.11,-0.53 -2.42,-0.8 -3.91,-0.8 h -19.06 v 24.57 h -3.98 v -54.48 h 24.52 c 2.29,0 4.5,0.21 6.65,0.63 2.14,0.42 4.04,1.15 5.73,2.21 1.66,1.06 3.01,2.53 4,4.4 0.99,1.88 1.49,4.27 1.49,7.19 0,1.82 -0.22,3.52 -0.68,5.1 -0.44,1.58 -1.13,2.98 -2.04,4.23 -0.91,1.24 -2.07,2.3 -3.48,3.19 -1.42,0.88 -3.06,1.52 -4.95,1.91 1.02,0.8 1.88,1.56 2.54,2.29 0.66,0.73 1.23,1.51 1.71,2.34 0.49,0.83 0.92,1.75 1.3,2.74 0.38,0.99 0.82,2.14 1.32,3.44 l 5.62,14.82 z M 127.64,640.1 h 18.91 c 2.69,0 4.99,-0.2 6.91,-0.59 1.92,-0.4 3.51,-1.05 4.75,-1.96 1.25,-0.91 2.16,-2.1 2.77,-3.56 0.59,-1.46 0.89,-3.25 0.89,-5.38 0,-3.75 -1.19,-6.43 -3.56,-8.04 -2.38,-1.61 -5.92,-2.41 -10.62,-2.41 h -20.05 z"
         id="path152"
         style="stroke-width:1.06548" /><polygon
         class="cls-5"
         points="228.34,642.3 228.34,664.68 263.71,664.68 263.71,668.66 224.36,668.66 224.36,614.18 262.37,614.18 262.37,618.16 228.34,618.16 228.34,638.31 260.22,638.31 260.22,642.3 "
         id="polygon154"
         style="stroke-width:1.06548" /><path
         class="cls-5"
         d="m 340.67,669.65 c -3.68,0 -6.9,-0.39 -9.65,-1.17 -2.75,-0.78 -5.07,-1.89 -6.94,-3.34 -1.88,-1.44 -3.32,-3.18 -4.31,-5.22 -0.99,-2.04 -1.57,-4.33 -1.74,-6.89 h 3.93 c 0.4,2.45 1.14,4.49 2.24,6.12 1.1,1.63 2.45,2.92 4.05,3.88 1.61,0.96 3.44,1.65 5.5,2.04 2.05,0.39 4.24,0.59 6.56,0.59 2.32,0 4.6,-0.26 6.55,-0.77 1.93,-0.51 3.59,-1.27 4.97,-2.24 1.38,-0.98 2.43,-2.16 3.16,-3.53 0.72,-1.37 1.09,-2.93 1.09,-4.65 0,-1.82 -0.31,-3.36 -0.94,-4.6 -0.64,-1.25 -1.69,-2.33 -3.19,-3.26 -1.49,-0.92 -3.46,-1.75 -5.89,-2.49 -2.44,-0.72 -5.46,-1.47 -9.08,-2.23 -2.98,-0.67 -5.55,-1.43 -7.69,-2.29 -2.14,-0.86 -3.9,-1.87 -5.3,-3.01 -1.39,-1.14 -2.42,-2.45 -3.08,-3.93 -0.67,-1.47 -1,-3.19 -1,-5.15 0,-2.12 0.45,-4.06 1.34,-5.82 0.89,-1.76 2.16,-3.26 3.81,-4.53 1.64,-1.26 3.62,-2.23 5.92,-2.93 2.3,-0.69 4.85,-1.04 7.63,-1.04 2.78,0 5.34,0.32 7.66,0.97 2.32,0.65 4.35,1.58 6.09,2.81 1.74,1.22 3.15,2.72 4.23,4.47 1.07,1.76 1.76,3.76 2.05,5.97 h -3.82 c -0.37,-1.46 -0.96,-2.81 -1.79,-4.08 -0.83,-1.26 -1.9,-2.35 -3.22,-3.26 -1.3,-0.92 -2.87,-1.62 -4.66,-2.14 -1.82,-0.52 -3.88,-0.78 -6.21,-0.78 -4.87,0 -8.56,0.9 -11.07,2.69 -2.5,1.79 -3.76,4.25 -3.76,7.37 0,1.42 0.24,2.67 0.7,3.73 0.46,1.06 1.26,2.01 2.37,2.86 1.11,0.85 2.57,1.59 4.39,2.24 1.83,0.65 4.1,1.25 6.82,1.82 1.6,0.33 3.23,0.68 4.92,1.04 1.69,0.37 3.35,0.8 4.95,1.3 1.61,0.5 3.14,1.11 4.59,1.84 1.47,0.73 2.73,1.62 3.81,2.68 1.08,1.06 1.94,2.33 2.59,3.81 0.65,1.47 0.97,3.22 0.97,5.25 0,2.32 -0.49,4.46 -1.48,6.39 -0.97,1.94 -2.34,3.61 -4.07,5.02 -1.74,1.42 -3.82,2.51 -6.22,3.29 -2.4,0.78 -5.01,1.17 -7.83,1.17"
         id="path156"
         style="stroke-width:1.06548" /><rect
         class="cls-5"
         x="418.73001"
         y="614.17999"
         width="3.98"
         height="54.48"
         id="rect158"
         style="stroke-width:1.06548" /><path
         class="cls-5"
         d="m 527.23,641 c 0,18.44 -9.17,27.66 -27.5,27.66 h -16.47 v -54.42 h 16.47 c 9.18,0 16.07,2.21 20.65,6.64 4.57,4.43 6.86,11.14 6.86,20.12 m -4.23,0 c 0,-3.59 -0.35,-6.79 -1.06,-9.6 -0.72,-2.82 -1.97,-5.21 -3.76,-7.19 -1.79,-1.98 -4.19,-3.47 -7.19,-4.5 -3,-1.03 -6.79,-1.54 -11.37,-1.54 h -12.39 v 46.51 h 12.39 c 4.54,0 8.32,-0.53 11.32,-1.59 3,-1.06 5.39,-2.62 7.19,-4.65 1.79,-2.04 3.05,-4.52 3.78,-7.44 0.73,-2.92 1.09,-6.25 1.09,-9.99"
         id="path160"
         style="stroke-width:1.06548" /><polygon
         class="cls-5"
         points="587.93,642.3 587.93,664.68 623.3,664.68 623.3,668.66 583.96,668.66 583.96,614.18 621.96,614.18 621.96,618.16 587.93,618.16 587.93,638.31 619.82,638.31 619.82,642.3 "
         id="polygon162"
         style="stroke-width:1.06548" /><polygon
         class="cls-5"
         points="722.26,614.18 722.26,668.66 717.04,668.66 683.8,618.91 683.8,668.66 679.82,668.66 679.82,614.18 685.3,614.18 718.28,663.84 718.28,614.18 "
         id="polygon164"
         style="stroke-width:1.06548" /><path
         class="cls-5"
         d="m 820.42,628.76 c -0.36,-1.62 -1.04,-3.14 -2.04,-4.56 -0.99,-1.41 -2.24,-2.64 -3.72,-3.68 -1.5,-1.04 -3.21,-1.87 -5.15,-2.46 -1.94,-0.6 -4.03,-0.9 -6.24,-0.9 -3.16,0 -6.01,0.52 -8.58,1.55 -2.57,1.02 -4.76,2.55 -6.57,4.55 -1.81,2.01 -3.21,4.52 -4.18,7.51 -0.97,3 -1.47,6.49 -1.47,10.47 0,3.98 0.5,7.49 1.47,10.52 0.98,3.04 2.37,5.58 4.18,7.64 1.81,2.05 3.98,3.61 6.52,4.67 2.53,1.06 5.36,1.59 8.48,1.59 4.7,0 8.58,-1.05 11.64,-3.16 3.05,-2.11 4.93,-5.18 5.67,-9.23 h 4.13 c -0.4,2.59 -1.22,4.9 -2.44,6.94 -1.22,2.04 -2.76,3.76 -4.62,5.15 -1.86,1.4 -4,2.45 -6.42,3.18 -2.43,0.73 -5.04,1.1 -7.85,1.1 -3.85,0 -7.31,-0.67 -10.38,-2.01 -3.07,-1.35 -5.68,-3.24 -7.84,-5.7 -2.15,-2.45 -3.81,-5.43 -4.98,-8.93 -1.16,-3.5 -1.73,-7.42 -1.73,-11.77 0,-4.35 0.57,-8.19 1.73,-11.64 1.17,-3.45 2.83,-6.39 5.01,-8.83 2.17,-2.44 4.79,-4.31 7.86,-5.63 3.06,-1.31 6.51,-1.96 10.33,-1.96 2.62,0 5.11,0.38 7.48,1.14 2.37,0.77 4.51,1.83 6.4,3.21 1.88,1.38 3.48,3.02 4.77,4.93 1.29,1.91 2.19,4 2.69,6.29 h -4.13 z"
         id="path166"
         style="stroke-width:1.06548" /><rect
         class="cls-5"
         x="883.15002"
         y="614.17999"
         width="3.98"
         height="54.48"
         id="rect168"
         style="stroke-width:1.06548" /><path
         class="cls-5"
         d="m 990.81,668.66 h -4.78 l -6.67,-17.51 h -26.81 c -0.96,2.75 -2.01,5.66 -3.13,8.73 -1.13,3.07 -2.21,6 -3.24,8.78 h -4.23 c 1.79,-4.71 3.56,-9.32 5.29,-13.83 1.75,-4.51 3.49,-9 5.21,-13.46 1.72,-4.46 3.46,-8.95 5.19,-13.46 1.75,-4.51 3.52,-9.11 5.31,-13.78 h 5.62 z m -12.6,-20.65 -12.63,-30.3 -12,30.3 h 24.62 z"
         id="path170"
         style="stroke-width:1.06548" /><polygon
         class="cls-5"
         points="1048.22,614.18 1048.22,664.68 1076.34,664.68 1076.34,668.66 1044.24,668.66 1044.24,614.18 "
         id="polygon172"
         style="stroke-width:1.06548" /><polygon
         class="cls-2"
         points="589.05,389.21 610.05,389.21 607.85,289.65 652.75,222.6 641.64,215.17 607.34,266.39 606.23,216.02 592.86,216.02 591.48,278.85 560.56,232.68 549.46,240.12 590.96,302.11 "
         id="polygon174"
         style="stroke-width:1.06548" /><path
         class="cls-4"
         d="m 533.04,262.22 v -0.12 c 0,0 -0.21,-0.01 -0.21,-0.01 -1.09,-0.66 -2.25,-1.25 -3.53,-1.73 -5.01,-1.91 -10.67,-1.81 -15.82,-0.93 h -0.22 v 0.04 c -7.84,1.38 -14.45,4.56 -15.8,5.24 l -0.19,-0.07 -0.15,0.4 0.18,0.07 c 0.72,1.81 5.23,12.54 13.15,19.55 l 0.11,0.2 0.07,-0.04 c 2.26,1.97 4.78,3.63 7.58,4.69 12.99,4.94 25.2,-4.89 26.8,-6.25 l 0.12,0.04 0.15,-0.4 -0.11,-0.04 c -0.26,-1.87 -2.38,-14.47 -12.14,-20.63"
         id="path176"
         style="stroke-width:1.06548" /><path
         class="cls-4"
         d="m 724.17,233.39 -0.18,-0.4 -0.18,0.08 c -1.79,-0.78 -12.54,-5.25 -23.09,-4.67 l -0.22,-0.06 -0.02,0.08 c -2.99,0.19 -5.96,0.78 -8.68,1.99 -12.71,5.61 -14.49,21.18 -14.69,23.29 l -0.1,0.04 0.16,0.4 0.11,-0.05 c 1.51,1.15 11.86,8.62 23.14,6.14 l 0.07,0.09 0.16,-0.15 c 1.24,-0.29 2.48,-0.69 3.72,-1.24 4.91,-2.17 8.87,-6.2 11.91,-10.45 l 0.16,-0.16 -0.03,-0.03 c 4.6,-6.49 7.07,-13.39 7.56,-14.82 l 0.18,-0.08 z"
         id="path178"
         style="stroke-width:1.06548" /><path
         class="cls-4"
         d="m 581.61,230.26 0.12,-0.16 -0.29,-0.22 c -0.84,-1.95 -1.88,-3.89 -3.15,-5.78 -5.04,-7.46 -12.89,-12.79 -20.81,-16.56 l -0.31,-0.22 -0.04,0.05 c -12.07,-5.67 -24.2,-7.71 -26.71,-8.08 l -0.19,-0.27 -0.6,0.4 0.18,0.27 c -0.76,3.17 -4.94,22.26 -0.86,39.52 l -0.04,0.39 h 0.13 c 1.2,4.89 3.06,9.61 5.87,13.77 13.04,19.32 39.28,17.64 42.81,17.33 l 0.1,0.16 0.61,-0.4 -0.1,-0.17 c 1.44,-2.82 10.71,-22.14 3.27,-40.03"
         id="path180"
         style="stroke-width:1.06548" /><path
         class="cls-5"
         d="m 519.81,252.58 0.11,0.12 0.44,-0.41 -0.12,-0.11 c 0.79,-2.5 5.67,-19.46 -2.83,-32.96 l 0.09,-0.15 -0.27,-0.14 c -0.95,-1.47 -2.06,-2.9 -3.35,-4.26 -5.12,-5.37 -12.22,-8.62 -19.17,-10.6 l -0.29,-0.14 -0.02,0.05 c -10.59,-2.96 -20.72,-2.94 -22.8,-2.91 l -0.19,-0.19 -0.44,0.41 0.19,0.19 c -0.18,2.68 -0.98,18.75 4.71,32.21 l 0.02,0.32 H 476 c 1.65,3.79 3.8,7.37 6.65,10.36 13.24,13.9 34.31,8.94 37.14,8.2"
         id="path182"
         style="stroke-width:1.06548" /><path
         class="cls-3"
         d="m 680.34,266.97 c -1.81,-1.27 -12.8,-8.65 -24.69,-10.37 l -0.23,-0.12 -0.05,0.08 c -3.38,-0.46 -6.81,-0.46 -10.12,0.28 -15.42,3.41 -20.89,20.37 -21.56,22.67 l -0.14,0.03 0.11,0.48 0.13,-0.03 c 1.42,1.62 11.29,12.27 24.42,12.02 l 0.07,0.12 0.21,-0.13 c 1.44,-0.04 2.91,-0.22 4.42,-0.55 5.97,-1.32 11.28,-4.94 15.61,-8.99 l 0.21,-0.14 -0.02,-0.04 c 6.58,-6.2 10.89,-13.34 11.74,-14.82 l 0.21,-0.05 -0.1,-0.48 -0.22,0.05 z"
         id="path184"
         style="stroke-width:1.06548" /><path
         class="cls-5"
         d="m 704.14,156.53 0.26,-0.31 -0.7,-0.58 -0.26,0.32 c -4.07,0.22 -28.35,1.94 -47.56,12.92 l -0.47,0.09 0.03,0.16 c -5.42,3.16 -10.41,7.05 -14.38,11.87 -18.5,22.41 -7.23,53.2 -5.61,57.32 l -0.16,0.19 0.69,0.58 0.16,-0.19 c 3.88,0.74 30.26,5.01 49.02,-10.22 l 0.24,0.1 0.16,-0.43 c 2.04,-1.69 3.99,-3.61 5.79,-5.81 7.15,-8.66 10.76,-19.92 12.46,-30.72 l 0.15,-0.45 -0.08,-0.03 c 2.52,-16.44 0.67,-31.67 0.24,-34.8"
         id="path186"
         style="stroke-width:1.06548" /><path
         class="cls-5"
         d="m 640.17,120.58 0.05,0.1 c -2.84,2.9 -5.29,6.17 -6.94,9.86 -7.7,17.14 4.59,34.4 6.31,36.68 l -0.07,0.15 0.53,0.24 0.06,-0.15 c 2.55,-0.21 19.73,-2.05 28.82,-14.75 l 0.17,0.02 0.02,-0.29 c 0.99,-1.4 1.87,-2.93 2.62,-4.61 2.98,-6.62 3.3,-14.26 2.52,-21.28 v -0.31 c 0,0 -0.03,0 -0.03,0 -1.24,-10.68 -5.01,-19.85 -5.81,-21.73 l 0.1,-0.24 -0.53,-0.24 -0.11,0.24 c -2.49,0.83 -17.34,6.06 -27.43,16.19 l -0.28,0.14 z"
         id="path188"
         style="stroke-width:1.06548" /><path
         class="cls-5"
         d="m 561.13,151.45 0.12,-0.14 -0.26,-0.23 c -0.7,-1.85 -1.58,-3.71 -2.69,-5.53 -4.36,-7.2 -11.46,-12.53 -18.68,-16.4 l -0.28,-0.22 -0.03,0.04 c -11.03,-5.84 -22.27,-8.29 -24.59,-8.75 l -0.16,-0.26 -0.58,0.35 0.16,0.27 c -0.85,2.93 -5.63,20.56 -2.58,36.86 l -0.05,0.37 h 0.13 c 0.9,4.63 2.43,9.12 4.86,13.13 11.31,18.63 35.9,18.24 39.21,18.1 l 0.1,0.15 0.58,-0.35 -0.1,-0.16 c 1.49,-2.58 11.02,-20.2 4.85,-37.24"
         id="path190"
         style="stroke-width:1.06548" /><path
         class="cls-4"
         d="m 678.97,114.93 0.36,0.12 0.03,-0.1 c 1.67,-0.3 12.85,-2.59 18.04,-11.51 h 0.11 c 0,0 0,-0.19 0,-0.19 0.56,-0.99 1.05,-2.05 1.43,-3.2 1.55,-4.54 1.28,-9.59 0.34,-14.16 v -0.2 h -0.05 c -1.48,-6.95 -4.53,-12.75 -5.18,-13.94 l 0.06,-0.16 -0.37,-0.13 -0.06,0.17 c -1.59,0.7 -11.03,5.07 -17.03,12.36 l -0.18,0.11 0.04,0.06 c -1.68,2.08 -3.09,4.39 -3.96,6.92 -4,11.75 5.17,22.34 6.44,23.74 l -0.03,0.1 z"
         id="path192"
         style="stroke-width:1.06548" /><path
         class="cls-4"
         d="m 512.31,170.04 0.07,-0.13 -0.24,-0.13 c -0.84,-1.31 -1.81,-2.59 -2.96,-3.8 -4.52,-4.81 -10.83,-7.74 -16.99,-9.53 l -0.25,-0.12 -0.03,0.04 c -9.39,-2.68 -18.42,-2.72 -20.27,-2.7 l -0.16,-0.17 -0.39,0.36 0.17,0.17 c -0.18,2.39 -0.97,16.68 4.03,28.68 l 0.02,0.29 h 0.09 c 1.45,3.38 3.35,6.58 5.87,9.25 11.71,12.44 30.49,8.14 33.01,7.49 l 0.1,0.1 0.38,-0.36 -0.1,-0.11 c 0.72,-2.21 5.14,-17.28 -2.35,-29.34"
         id="path194"
         style="stroke-width:1.06548" /><path
         class="cls-5"
         d="m 597.31,86.39 v 0.13 h 0.47 c 0,0 0,-0.12 0,-0.12 1.83,-0.98 13.94,-7.95 16.52,-20.32 l 0.13,-0.03 -0.07,-0.23 c 0.26,-1.36 0.41,-2.78 0.43,-4.27 0.04,-5.87 -2.21,-11.63 -5.08,-16.57 l -0.09,-0.23 h -0.04 c -4.4,-7.48 -10.17,-13.06 -11.37,-14.18 v -0.21 h -0.48 c 0,0 0,0.21 0,0.21 -1.58,1.43 -10.86,10.14 -15.02,20.93 l -0.17,0.2 0.07,0.05 c -1.16,3.07 -1.91,6.29 -1.91,9.56 -0.12,15.2 14.6,23.97 16.62,25.1"
         id="path196"
         style="stroke-width:1.06548" /><path
         class="cls-3"
         d="m 632.54,188.26 -0.14,-0.44 c 0.48,-2.59 0.74,-5.31 0.74,-8.14 -0.04,-11.19 -4.47,-22.13 -10.04,-31.5 l -0.17,-0.44 -0.08,0.02 c -8.55,-14.21 -19.67,-24.7 -22.01,-26.82 v -0.4 h -0.9 v 0.41 c -2.98,2.75 -20.51,19.57 -28.22,40.23 l -0.31,0.37 0.13,0.1 c -2.14,5.88 -3.49,12.04 -3.46,18.27 0.11,28.98 28.38,45.39 32.24,47.51 v 0.24 h 0.91 v -0.24 c 3.45,-1.92 26.39,-15.46 31.06,-39.09 l 0.24,-0.08 z"
         id="path198"
         style="stroke-width:1.06548" /><path
         class="cls-4"
         d="m 539.53,109.38 c 5.02,22.4 29.69,30.29 33.05,31.27 l 0.03,0.19 0.7,-0.15 -0.04,-0.19 c 2.34,-2.07 17.78,-16.45 17.38,-35.54 l 0.18,-0.1 -0.19,-0.31 c -0.07,-2.09 -0.33,-4.23 -0.82,-6.42 -1.93,-8.66 -7.22,-16.36 -13.13,-22.66 l -0.2,-0.32 -0.06,0.03 C 567.39,65.64 557,59.42 554.83,58.17 l -0.07,-0.31 -0.7,0.15 0.07,0.32 c -1.83,2.64 -12.53,18.63 -14.98,35.93 l -0.18,0.34 0.13,0.06 c -0.66,4.91 -0.65,9.91 0.43,14.73"
         id="path200"
         style="stroke-width:1.06548" /><path
         class="cls-3"
         d="m 613.5,82 c -5.87,18.94 9.21,35.45 11.29,37.63 l -0.04,0.16 0.59,0.18 0.05,-0.16 c 2.65,-0.54 20.39,-4.68 28.29,-19.14 h 0.18 v -0.31 c 0.84,-1.6 1.57,-3.31 2.14,-5.17 2.26,-7.32 1.63,-15.36 -0.09,-22.61 l -0.03,-0.32 h -0.06 C 653.16,61.23 648.05,52.1 646.96,50.24 l 0.08,-0.26 -0.59,-0.19 -0.08,0.27 c -2.52,1.19 -17.4,8.57 -26.67,20.47 l -0.28,0.18 0.06,0.1 c -2.6,3.4 -4.74,7.14 -6,11.21"
         id="path202"
         style="stroke-width:1.06548" /><path
         class="cls-3"
         d="m 747.88,170.01 0.14,-0.17 -0.36,-0.32 -0.15,0.17 c -2.21,0.04 -15.44,0.55 -26.06,6.18 l -0.26,0.04 0.02,0.09 c -3,1.62 -5.77,3.64 -8.03,6.19 -10.44,11.85 -4.86,28.77 -4.05,31.03 l -0.09,0.1 0.37,0.33 0.09,-0.1 c 2.09,0.47 16.36,3.25 26.81,-4.69 l 0.13,0.05 0.09,-0.23 c 1.14,-0.89 2.23,-1.89 3.25,-3.05 4.04,-4.58 6.19,-10.63 7.31,-16.46 l 0.09,-0.24 -0.04,-0.02 c 1.66,-8.88 0.93,-17.19 0.75,-18.89"
         id="path204"
         style="stroke-width:1.06548" /><path
         class="cls-4"
         d="m 696.15,110.55 v 0.09 c -2.98,1.62 -5.76,3.64 -8,6.19 -10.44,11.85 -4.87,28.77 -4.06,31.03 l -0.08,0.1 0.37,0.33 0.08,-0.1 c 2.1,0.47 16.35,3.25 26.82,-4.69 l 0.12,0.06 0.1,-0.23 c 1.14,-0.89 2.23,-1.89 3.25,-3.05 4.03,-4.58 6.19,-10.63 7.31,-16.46 l 0.08,-0.24 -0.03,-0.02 c 1.65,-8.88 0.92,-17.19 0.74,-18.89 l 0.15,-0.17 -0.36,-0.32 -0.16,0.16 c -2.21,0.04 -15.43,0.55 -26.05,6.18 l -0.26,0.04 z"
         id="path206"
         style="stroke-width:1.06548" /><path
         class="cls-3"
         d="m 506.08,96.62 -0.05,0.2 h 0.07 c 0.24,2.65 0.83,5.24 1.97,7.62 5.24,11.06 19,12.25 20.86,12.36 l 0.04,0.09 0.34,-0.16 -0.04,-0.09 c 0.97,-1.35 7.3,-10.65 4.83,-20.53 l 0.08,-0.08 -0.14,-0.14 c -0.28,-1.07 -0.67,-2.16 -1.18,-3.24 -2.03,-4.27 -5.68,-7.66 -9.5,-10.23 l -0.14,-0.14 -0.03,0.02 C 517.37,78.41 511.23,76.39 509.96,76 l -0.07,-0.15 -0.35,0.16 0.07,0.15 c -0.64,1.59 -4.32,11.17 -3.55,20.45"
         id="path208"
         style="stroke-width:1.06548" /></g></g></svg>
